<svg width="208" height="60" viewBox="0 0 208 60" fill="none" xmlns="http://www.w3.org/2000/svg">
<path d="M73.1911 42.199V43.7663H75.8114C75.6741 45.1831 75.0253 46.4118 73.5903 46.4118C72.5547 46.4118 71.806 45.7724 71.5814 44.6565H69.6973C70.0716 46.6375 71.3568 48.0167 73.6278 48.0167C76.036 48.0167 77.7829 46.3742 77.7829 43.2397C77.7829 40.0549 75.9362 38.4375 73.6028 38.4375C70.8951 38.4375 69.7971 40.3182 69.6973 41.6598H71.5814C71.7311 41.1082 72.0431 40.0424 73.6028 40.0424C74.3764 40.0424 75.4121 40.5314 75.7365 42.199H73.1911Z" fill="#004781"/>
<path d="M80.1459 38.6757V43.9293C80.1459 45.8978 79.9338 46.4996 79.0853 46.4996C78.8357 46.4996 78.6361 46.462 78.5238 46.4244V47.8788C78.8482 47.9791 79.2475 48.0167 79.6717 48.0167C81.456 48.0167 82.03 46.4871 82.03 44.1299V40.243H84.588V47.7785H86.4721V38.6757H80.1459Z" fill="#004781"/>
<path d="M88.2153 38.6757V47.7785H95.1031V46.2112H90.0995V43.691H94.5041V42.1238H90.0995V40.243H94.9034V38.6757H88.2153Z" fill="#004781"/>
<path d="M98.4221 38.6757H96.5379V47.7785H98.4221V44.6941L99.308 43.7788L102.103 47.7785H104.536L100.631 42.3996L104.324 38.6757H101.878L98.4221 42.3745V38.6757Z" fill="#004781"/>
<path d="M109.388 40.243H112.12V38.6757H104.771V40.243H107.504V47.7785H109.388V40.243Z" fill="#004781"/>
<path d="M115.055 44.4935H117.226C119.659 44.4935 120.109 42.3996 120.109 41.5846C120.109 39.7916 119.06 38.6757 117.314 38.6757H113.171V47.7785H115.055V44.4935ZM115.055 40.243H116.565C117.738 40.243 118.224 40.6192 118.224 41.5094C118.224 42.0736 118.062 42.9262 116.814 42.9262H115.055V40.243Z" fill="#004781"/>
<path d="M121.23 43.2271C121.23 47.4901 124.375 48.0167 125.573 48.0167C126.771 48.0167 129.915 47.4901 129.915 43.2271C129.915 38.9641 126.771 38.4375 125.573 38.4375C124.375 38.4375 121.23 38.9641 121.23 43.2271ZM123.115 43.2271C123.115 40.6818 124.549 40.0424 125.573 40.0424C126.596 40.0424 128.031 40.6818 128.031 43.2271C128.031 45.7724 126.596 46.4118 125.573 46.4118C124.549 46.4118 123.115 45.7724 123.115 43.2271Z" fill="#004781"/>
<path d="M131.352 38.6757V47.7785H133.236V40.243H137.803V38.6757H131.352Z" fill="#004781"/>
<path d="M139.004 38.6757V47.7785H145.892V46.2112H140.888V43.691H145.293V42.1238H140.888V40.243H145.692V38.6757H139.004Z" fill="#004781"/>
<path d="M149.211 38.6757H147.327V47.7785H149.211V43.691H152.742V47.7785H154.626V38.6757H152.742V42.1238H149.211V38.6757Z" fill="#004781"/>
<path d="M156.368 38.6757V47.7785H163.256V46.2112H158.252V43.691H162.657V42.1238H158.252V40.243H163.056V38.6757H156.368Z" fill="#004781"/>
<path d="M166.575 44.4935H168.746C171.179 44.4935 171.628 42.3996 171.628 41.5846C171.628 39.7916 170.58 38.6757 168.833 38.6757H164.691V47.7785H166.575V44.4935ZM166.575 40.243H168.085C169.258 40.243 169.744 40.6192 169.744 41.5094C169.744 42.0736 169.582 42.9262 168.334 42.9262H166.575V40.243Z" fill="#004781"/>
<path d="M175.024 38.6757L171.805 47.7785H173.789L174.425 45.8978H177.757L178.343 47.7785H180.39L177.208 38.6757H175.024ZM176.085 40.732H176.11L177.345 44.3305H174.924L176.085 40.732Z" fill="#004781"/>
<path d="M183.415 38.6757H181.531V47.7785H187.969V49.7094H189.729V46.2112H188.83V38.6757H186.946V46.2112H183.415V38.6757Z" fill="#004781"/>
<path d="M192.749 38.6757H190.865V47.7785H192.886L196.58 41.2962H196.605V47.7785H198.489V38.6757H196.368L192.762 45.0201H192.749V38.6757Z" fill="#004781"/>
<path d="M207.41 38.6757H202.831C201.084 38.6757 199.986 40.0048 199.986 41.4467C199.986 42.8886 201.009 43.7036 202.032 44.0421L199.824 47.7785H202.032L204.128 44.2176H205.526V47.7785H207.41V38.6757ZM205.526 42.6504H203.342C202.357 42.6504 201.87 42.1363 201.87 41.384C201.87 40.895 202.232 40.243 203.193 40.243H205.526V42.6504Z" fill="#004781"/>
<path fill-rule="evenodd" clip-rule="evenodd" d="M31.715 43.2815C23.5448 43.2815 16.9262 36.6671 16.9262 28.5143C16.9262 20.3615 23.5448 13.7471 31.715 13.7471C39.8851 13.7471 46.512 20.3615 46.512 28.5143C46.5037 36.6671 39.8851 43.2815 31.715 43.2815ZM60.2444 31.0646C59.1221 30.209 57.7439 29.6167 56.4977 28.9667C55.92 28.6624 54.5996 27.6751 54.2035 27.3214C52.9656 26.2272 52.2228 25.0672 50.7291 24.2199C50.7291 24.2199 51.051 23.9895 51.3811 23.8496C52.4787 23.3807 53.7166 23.3725 54.7894 22.8789C53.4277 20.8468 51.0345 21.1183 49.483 19.6704C50.399 19.8432 51.6121 19.7362 52.5364 19.6457C54.2447 19.4812 54.5088 18.8806 55.3176 17.6795C55.5487 17.334 55.8705 16.9884 56.1511 16.7992C57.422 15.9519 60.7066 16.3632 62.1425 16.3632C60.8716 15.6804 58.8827 14.4134 57.422 14.2818C51.7607 13.5908 49.5902 15.557 45.8518 13.6813C45.4392 13.5249 47.6674 12.184 49.0208 12.1346C48.7402 11.9536 47.0649 11.3695 46.446 11.386C44.9688 11.4189 44.2425 11.9289 43.1119 12.7434C43.1119 11.6657 43.1862 10.8841 44.2425 10.2095C44.8945 9.78995 46.1819 9.49379 46.6605 9.14826C47.1475 8.80273 47.6426 7.84842 47.8159 7.30544C47.9892 6.7707 47.9645 5.39681 47.9645 5.39681C47.23 6.31 46.6605 7.00105 45.4639 7.23963C45.4639 7.23963 40.6361 8.15281 39.4807 8.55593C38.3254 8.95904 37.0627 10.2095 37.0627 10.2095C37.0627 10.2095 36.8894 9.99562 36.8729 9.45265C36.8646 8.91791 39.4147 4.26974 39.0764 4.49186C38.738 4.70576 37.1782 5.16646 36.2539 5.48731C35.3296 5.80816 33.7204 6.14546 31.8305 6.99282C29.9324 7.84019 28.8513 9.69123 28.6697 9.4362C28.4964 9.18117 28.059 8.65465 27.9848 7.84019C27.9023 7.0175 28.678 5.66007 28.9916 4.92788C29.6518 3.3401 29.9407 1.43147 28.7523 0C28.3231 0.337301 24.1473 4.70576 23.289 6.17837C22.439 7.65097 21.2176 10.9006 21.2176 10.9006L19.7899 15.2361C19.7899 15.2361 19.3607 14.8577 19.1049 14.471C18.8491 14.0679 18.9811 12.5377 18.9811 12.5377C19.3277 10.2424 19.369 7.43707 17.2646 5.84106C16.6456 5.37213 15.8204 5.42972 15.8204 5.42972C15.8204 5.42972 16.3733 6.20305 16.332 7.19027C16.2825 8.16926 16.0102 9.18939 16.0102 9.18939L14.9373 13.5249C14.0213 17.046 14.3844 19.0698 14.2689 19.0534C12.6266 18.8806 11.3722 17.4327 11.0421 15.9272C10.8853 15.1868 10.8853 12.6611 10.8853 12.6611C9.05317 15.3595 8.03809 17.0954 8.59927 20.3697C8.98715 22.6321 10.2581 25.0014 11.4052 26.9841C11.9994 28.0042 12.4285 29.8306 12.4285 29.8306C11.7353 29.1395 11.0916 28.5472 10.0105 28.5472C8.43422 28.5472 6.21425 29.9211 4.85257 29.1066C4.73703 29.0326 4.3409 28.8762 4.3409 28.8762C4.3409 28.8762 4.54722 29.337 4.66275 29.5262C6.13173 31.8873 7.98858 31.4677 10.2168 32.529C11.4217 33.0966 12.1067 33.5162 12.9484 34.6104C12.3377 34.306 10.712 34.5363 10.1013 34.7502C9.08618 35.104 8.23616 35.8855 7.13855 36.2475C5.38073 36.8316 2.89668 36.6013 1.21314 35.8033C0.808761 35.614 0 35.1287 0 35.1287C0 35.1287 0.140295 35.54 0.321854 35.8938C0.511665 36.2393 1.80733 38.0492 2.21997 38.4605C3.7137 39.9496 5.28996 40.5666 7.30361 40.8052C10.7367 40.9615 13.7242 40.2951 17.0087 40.9039C18.1228 41.1096 19.4185 41.85 19.4185 41.85C15.9029 42.8948 17.2316 44.861 12.8907 45.6673C15.8534 47 18.1559 46.5311 20.9948 45.6673C22.9589 45.0667 25.1129 45.042 25.1129 45.042C23.8254 45.6343 22.1667 46.7367 21.4074 47.9296C19.5753 50.8173 17.4626 52.405 14.046 52.8082C15.3252 54.8155 19.336 53.9352 21.0856 53.4334C23.1487 52.8493 25.0963 51.8374 26.6148 50.3072C26.9119 50.011 27.8197 49.0814 28.1416 48.7359C28.4634 48.3903 28.9751 47.9214 29.4868 47.5759C29.9984 47.2304 30.9227 46.8355 31.4096 46.7203C31.8965 46.6051 33.0519 46.7696 33.0519 46.7696C33.0519 46.7696 33.0519 46.7697 32.9611 46.8355C32.8703 46.9095 32.565 47.436 32.3339 47.7816C31.5747 48.9251 31.2611 50.4635 31.1786 51.8045C31.129 52.5202 30.9227 53.7213 30.9227 53.7213C32.7548 52.0019 33.9515 48.7935 36.2457 47.6417C36.6171 47.4525 37.0627 47.4772 37.0627 47.4772C36.9472 49.7478 35.4864 51.6811 35.4864 53.9517C35.4864 58.5834 39.9099 59.4308 39.8851 59.2662C39.7118 58.0158 39.7696 55.7287 40.0749 54.5029C40.6196 52.331 41.7832 50.1673 42.4599 47.9625C42.7901 46.8848 42.7405 45.4616 42.6002 44.3592C43.2274 44.2769 44.8202 47.2221 44.7294 47.6006C44.7294 46.8026 45.2328 45.3875 45.3071 44.4332C45.3896 43.4378 45.1751 42.1791 44.8945 41.2248C46.0911 41.6608 46.9411 42.2696 47.7169 43.2568C48.0635 43.6928 48.5999 44.4579 48.897 44.9433C49.582 46.0375 50.1432 47.617 51.2573 48.3163C51.7937 48.6536 52.751 48.5055 53.3617 48.4315C52.817 47.9296 52.3384 47.5923 52.0248 46.9095C51.4141 45.5768 51.2903 43.3555 51.2903 41.8418C51.2903 39.4066 50.7539 36.9632 49.5077 34.8572C50.1432 34.9312 50.7209 35.0957 51.2408 35.4824C51.5131 35.6881 52.1898 36.2228 52.5612 36.0172C51.8762 35.3919 52.0991 34.1743 51.7524 33.3352C51.6369 33.0555 51.2408 32.1834 51.2408 32.1834C51.7359 32.2739 52.2641 32.6688 52.718 32.8745C53.7661 33.3517 55.2021 33.4915 56.3327 33.5491C58.1978 33.6478 60.0959 33.6314 61.7959 34.4705C61.9775 34.561 62.7863 35.2356 62.7863 35.2356C62.7863 34.742 62.7945 34.2319 62.6212 33.7548C62.2003 32.5536 61.21 31.8132 60.2444 31.0646Z" fill="#F78F1E"/>
<path fill-rule="evenodd" clip-rule="evenodd" d="M28.0841 15.5492C28.4967 15.3764 28.4967 15.3764 28.5297 15.3764C28.3977 15.4258 28.2326 15.5163 28.0841 15.5492ZM37.129 16.0099C35.462 15.3353 33.8527 15.0144 32.0619 14.9157C32.0619 14.817 32.0701 14.7183 32.0784 14.6196C34.059 14.6607 35.9406 15.1214 37.6407 15.9112C37.4674 15.9359 37.2941 15.977 37.129 16.0099ZM32.0536 16.0099C32.0536 15.8207 32.0536 15.6315 32.0536 15.4422C32.0866 15.4505 32.1196 15.4505 32.1609 15.4505C32.1857 15.4916 32.1857 15.4916 32.2104 15.5821C32.6643 15.6644 32.3012 15.9276 32.0536 16.0099ZM32.0536 16.1662C32.0536 16.1168 32.0536 16.0675 32.0536 16.0181C32.1279 16.0428 32.1279 16.0428 32.1774 16.0675C32.1774 16.1744 32.1527 16.158 32.0536 16.1662ZM26.904 16.1744C26.8875 16.158 26.8875 16.158 26.8379 16.1415C26.8627 16.1333 26.8875 16.1168 26.9205 16.1086C26.9122 16.1333 26.904 16.1497 26.904 16.1744ZM36.6504 16.1909C36.6751 16.1168 36.6916 16.1251 36.7576 16.1415C36.7246 16.1497 36.6916 16.1662 36.6504 16.1909ZM31.2861 16.2238C31.2201 16.2073 31.1541 16.1827 31.0881 16.1662C31.1788 16.158 31.2614 16.1415 31.3522 16.1333C31.3274 16.1744 31.3274 16.2156 31.2861 16.2238ZM26.3758 16.3636C26.4088 16.339 26.4088 16.339 26.4253 16.3472C26.4088 16.3472 26.3923 16.3554 26.3758 16.3636ZM31.2284 16.6598C31.1623 16.6269 31.1211 16.5446 31.0633 16.487C31.2036 16.4048 31.3356 16.3966 31.4924 16.3966C31.3934 16.4788 31.2779 16.5364 31.2284 16.6598ZM36.8484 16.7421C36.8402 16.6269 36.8402 16.52 36.8319 16.413C36.8484 16.4048 36.8484 16.4048 36.9392 16.5117C36.9227 16.52 36.9062 16.5282 36.8897 16.5364C36.8814 16.6516 36.8814 16.6516 36.8979 16.7339C36.8897 16.7339 36.8732 16.7339 36.8484 16.7421ZM36.7164 17.1123C36.6173 17.0465 36.7081 17.0053 36.7824 16.9395C36.8072 16.956 36.8072 16.956 36.8237 17.0382C36.7659 17.0382 36.7494 17.0629 36.7164 17.1123ZM31.5832 17.1287C31.5832 17.0382 31.4842 16.956 31.4264 16.8902C31.542 16.8902 31.542 16.8902 31.6575 16.8984C31.6988 16.956 31.674 17.0218 31.6575 17.0876C31.641 17.1123 31.608 17.1205 31.5832 17.1287ZM32.4167 17.1863C32.4085 17.1534 32.4002 17.1205 32.392 17.0876C32.4167 17.0958 32.4498 17.0958 32.4828 17.1041C32.491 17.1205 32.4993 17.1452 32.5075 17.1699C32.4745 17.1781 32.4415 17.1781 32.4167 17.1863ZM31.2284 17.2028C31.1953 17.1287 31.1623 17.0629 31.1211 16.9971C30.9725 16.9971 30.857 17.0958 30.7249 17.0958C30.6259 16.956 30.238 16.9971 30.073 16.9889C30.073 16.7174 29.3633 16.8326 29.2065 16.8326C29.2065 16.7997 29.2065 16.7585 29.2065 16.7256C29.3798 16.7174 29.5531 16.7092 29.7346 16.7009C29.7594 16.6763 29.7594 16.6763 29.7594 16.6187C29.7346 16.6022 29.7346 16.6022 29.1817 16.4377C29.1817 16.4212 29.1817 16.3966 29.19 16.3801C29.5366 16.3307 29.7594 16.3143 30.0895 16.4048C30.0895 16.4212 30.0977 16.4377 30.0977 16.4541C30.1143 16.4706 30.139 16.4788 30.1638 16.487C30.1638 16.5529 30.0977 16.5858 30.0977 16.6598C30.3948 16.8326 30.6837 16.956 31.022 16.8326C31.2861 16.849 31.2861 16.849 31.3274 16.8655C31.3356 16.9642 31.3439 17.0547 31.3522 17.1452C31.2944 17.1781 31.2614 17.1863 31.2284 17.2028ZM33.5474 17.4002C33.4978 17.2768 33.308 17.2933 33.1925 17.2851C33.1842 17.211 33.1842 17.1452 33.1347 17.0876C33.0605 17.0876 33.0192 17.1452 32.9614 17.1863C32.9367 16.9889 32.9449 16.9807 32.7964 16.8737C32.7964 16.8655 32.7964 16.849 32.7964 16.8408C32.8294 16.8244 32.8706 16.8079 32.9036 16.7997C33.176 16.9642 33.4318 16.8984 33.7207 16.9724C33.7372 17.0053 33.7537 17.0465 33.7702 17.0876C33.6877 17.0712 33.5391 16.9971 33.4648 17.0547C33.4648 17.0794 33.4566 17.1041 33.4566 17.1287C33.5226 17.1617 33.5886 17.1946 33.6546 17.2275C33.6299 17.2439 33.6134 17.2521 33.5969 17.2686C33.5969 17.2851 33.5969 17.3097 33.5969 17.3262C33.6134 17.3426 33.6381 17.3591 33.6546 17.3755C33.6134 17.392 33.6134 17.392 33.5474 17.4002ZM31.8226 17.4907C31.806 17.4743 31.7895 17.4578 31.773 17.4496C31.7978 17.4496 31.8143 17.4414 31.8391 17.4414C31.8391 17.4578 31.8391 17.466 31.8391 17.4825C31.8308 17.4825 31.8226 17.4825 31.8226 17.4907ZM31.2861 17.499C31.2614 17.4743 31.2614 17.4743 31.2614 17.4414C31.3356 17.4414 31.4182 17.4414 31.5007 17.4414C31.5007 17.4414 31.5007 17.4496 31.5007 17.4578C31.3604 17.4825 31.3604 17.4825 31.2861 17.499ZM32.7964 17.6717C32.7881 17.6553 32.7799 17.647 32.7716 17.6306C32.7881 17.6141 32.8046 17.5894 32.8294 17.5977C32.8294 17.6224 32.8294 17.647 32.8294 17.6717C32.8129 17.6717 32.8046 17.6717 32.7964 17.6717ZM33.1265 17.7869C33.11 17.7704 33.0935 17.7458 33.077 17.7293C33.11 17.7375 33.143 17.7458 33.176 17.754C33.176 17.7622 33.1842 17.7704 33.1842 17.7787C33.1595 17.7787 33.143 17.7869 33.1265 17.7869ZM31.3769 17.7869C31.3604 17.7211 31.3109 17.7211 31.2449 17.6799C31.3604 17.6799 31.6988 17.6388 31.4264 17.7129C31.4099 17.7458 31.3934 17.7704 31.3769 17.7869ZM32.3342 17.9843C32.326 17.9761 32.3177 17.9679 32.3095 17.9597C32.3177 17.9597 32.3342 17.9679 32.3507 17.9679C32.3425 17.9761 32.3342 17.9843 32.3342 17.9843ZM27.7705 18.7494C27.7127 18.7494 27.6467 18.7412 27.5972 18.733C27.6467 18.6672 27.6797 18.5767 27.7705 18.6096C27.7787 18.6589 27.787 18.7001 27.7953 18.7412C27.787 18.7494 27.7787 18.7494 27.7705 18.7494ZM27.919 18.7577C27.8943 18.7494 27.8778 18.7412 27.8695 18.733C27.9025 18.7165 27.9355 18.7083 27.9768 18.7165C27.9768 18.7248 27.9851 18.7412 27.9933 18.7577C27.9603 18.7577 27.9355 18.7577 27.919 18.7577ZM32.4498 19.0785C32.425 19.0538 32.425 19.0538 32.3507 19.0374C32.3507 18.8482 33.7372 17.8774 33.9187 17.7375C33.7289 17.7293 33.6959 17.7211 33.5804 17.5812C33.7207 17.5565 34.1003 17.5072 34.1911 17.5483C34.5047 17.3426 34.5047 17.3426 34.5459 17.2933C34.3644 17.1863 34.1828 17.0712 34.0013 16.9724C34.1333 16.7914 33.6794 16.7914 33.5639 16.7092C33.4071 16.4459 33.3988 16.5446 33.1182 16.7009C32.8789 16.5282 32.7056 16.4953 32.4085 16.4788C32.4002 16.487 32.392 16.487 32.3837 16.4953C32.2434 16.3719 32.1939 16.4459 32.0536 16.5693C32.0536 16.7009 32.1196 16.7256 32.2104 16.8079C32.2104 16.8655 32.1609 16.8984 32.1279 16.9395C32.1031 16.9148 32.0784 16.8902 32.0536 16.8737C32.0454 17.573 32.0371 18.2723 32.0371 18.9798C31.9959 18.9798 31.9546 18.9798 31.9133 18.9798C31.9133 18.733 31.9051 18.4779 31.9051 18.2311C31.8803 18.2558 31.8638 18.264 31.8308 18.2723C31.773 18.2065 31.7153 18.1489 31.6575 18.0831C31.6658 18.0584 31.6657 18.0584 31.707 18.0337C31.7153 18.0502 31.7318 18.0748 31.7483 18.0995C31.7978 18.1077 31.8556 18.116 31.9133 18.1242C31.9298 17.9185 31.9298 17.9185 31.9298 16.594C31.8803 16.5611 31.8391 16.52 31.7978 16.5035C31.7648 16.5282 31.7318 16.5693 31.6823 16.5693C31.6327 16.5035 31.5832 16.4377 31.542 16.3719C31.6327 16.3636 31.7153 16.3554 31.7978 16.3472C31.8226 16.3225 31.8226 16.3225 31.8226 16.2649C31.7978 16.2485 31.7978 16.2485 31.5832 16.1909C31.6988 16.1827 31.8143 16.1744 31.9381 16.1662C31.9381 15.9194 31.9463 15.6726 31.9463 15.434C30.8075 15.3682 30.8075 15.3682 30.7249 15.36C30.4856 15.179 30.4856 15.179 30.4279 15.1625C30.1803 15.2283 29.6686 15.3024 30.1473 15.4505C30.0565 15.4916 29.974 15.541 29.8914 15.5903C29.8914 15.7302 30.0812 15.722 30.1885 15.7549C30.1885 15.7631 30.1885 15.7713 30.1885 15.7795C30.04 15.8454 30.2876 15.9441 30.3206 15.9523C30.3206 15.9852 30.3206 16.0099 30.3288 16.0346C30.0812 16.0428 29.8337 16.0593 29.5943 16.0675C29.5943 16.0428 29.5943 16.0181 29.5943 15.9934C29.5613 15.9523 29.487 15.9605 29.4375 15.9523C29.4375 15.9276 29.4375 15.9112 29.4375 15.8947C29.3798 15.8371 29.2972 15.8947 29.2312 15.9194C29.0579 15.7466 28.8021 16.0263 28.7608 16.2073C28.6288 16.1909 28.4967 16.1827 28.3647 16.1744C28.3317 16.1415 28.3482 16.1004 28.3234 16.0675C28.1419 16.0675 27.9438 16.1333 27.7622 16.1662C27.7953 16.1497 27.82 16.1333 27.8448 16.1086C27.8448 16.0839 27.8448 16.0675 27.8448 16.0428C27.8283 16.0346 27.8118 16.0181 27.7953 16.0099C27.3001 16.1827 27.3001 16.1827 27.2753 16.1744C27.655 15.7466 28.2987 15.722 28.7361 15.4011C28.7361 15.3847 28.7361 15.36 28.7361 15.3435C28.7196 15.3271 28.6948 15.3106 28.6783 15.3024C30.4526 14.5949 32.5158 15.1625 34.2818 15.4505C35.0989 15.796 35.9076 16.1333 36.7246 16.4788C36.7246 16.7832 36.7164 16.8244 36.5101 17.03C36.5101 17.1699 36.7164 17.1781 36.7329 17.3426C36.7576 17.3509 36.7907 17.3591 36.8237 17.3755C36.8402 17.499 36.8649 17.6306 36.8897 17.7622C36.6173 17.8445 35.8168 18.1818 35.5693 18.1324C35.2804 17.5648 35.2969 17.6306 34.6697 17.5401C34.6697 17.4907 34.6615 17.4414 34.6615 17.3838C33.8857 17.9185 33.1595 18.4697 32.4498 19.0785ZM25.1792 16.2485C26.8379 16.1086 28.5545 17.0382 29.8832 17.9185C29.8584 17.9185 29.8584 17.9185 29.3963 17.7704C29.3055 17.6553 29.3055 17.6553 29.289 17.647C29.1817 17.754 28.9671 17.7293 28.8351 17.6799C28.8268 17.647 28.8103 17.6224 28.8351 17.5894C28.8186 17.573 28.6205 17.5894 28.5793 17.573C28.5793 17.4825 28.5958 17.4331 28.6288 17.3344C28.1996 16.9642 27.3249 17.1534 26.8627 17.3673C26.8627 17.4496 27.168 17.3755 27.168 17.573C27.2506 17.6141 27.3414 17.647 27.4321 17.6882C27.4321 17.7622 27.4156 17.8198 27.3826 17.8856C27.4074 17.9021 27.4321 17.9185 27.4569 17.9432C27.4569 17.9597 27.4569 17.9843 27.4651 18.009C27.4156 18.0584 27.3414 18.0584 27.3083 18.116C27.3414 18.1818 27.3826 18.2476 27.4156 18.3134C27.4569 18.3134 27.5064 18.3216 27.5559 18.3299C27.6302 18.445 27.4899 18.4697 27.3991 18.5026C27.3744 18.5684 27.3579 18.626 27.3414 18.6918C25.4515 18.6096 23.4874 18.5273 21.6635 19.1114C21.5067 19.1772 21.3994 19.2266 21.3252 19.2595C22.4228 18.0502 23.7267 17.03 25.1792 16.2485ZM26.1282 19.5557C26.0952 19.5392 26.0704 19.531 26.0374 19.5063C26.0457 19.3994 26.0457 19.2842 26.0539 19.1772C26.1447 19.1114 26.2272 19.0209 26.3345 18.988C26.3345 19.1608 26.3593 19.0621 26.4088 19.1525C26.3428 19.2184 26.3098 19.2184 26.3263 19.3253C26.3758 19.3418 26.3758 19.3418 26.4336 19.3335C26.3923 19.4323 26.219 19.5145 26.1282 19.5557ZM28.8186 20.7403C28.8351 20.7239 28.8351 20.7239 28.8929 20.7321C28.8681 20.7321 28.8433 20.7403 28.8186 20.7403ZM29.5366 20.7815C29.5118 20.7815 29.487 20.7732 29.4705 20.7732C29.4705 20.7568 29.4705 20.7486 29.4705 20.7403C29.5036 20.7486 29.5366 20.7568 29.5696 20.765C29.5531 20.7732 29.5366 20.7732 29.5366 20.7815ZM24.4777 20.7815C24.4612 20.7732 24.4447 20.765 24.4282 20.7568C24.4529 20.7486 24.4777 20.7403 24.4942 20.7403C24.4859 20.7568 24.4859 20.765 24.4777 20.7815ZM23.9 21.0941C23.8917 21.053 23.8917 21.02 23.8917 20.9871C24.0568 20.9213 24.1558 20.8308 24.3126 20.7979C24.2879 20.8637 24.2796 20.9296 24.2631 20.9954C24.0568 21.0036 24.0733 21.0036 23.9 21.0941ZM26.2603 21.7111C26.2107 21.6782 26.1612 21.6453 26.12 21.6124C26.2603 21.6124 26.4006 21.6124 26.5326 21.6124C26.5326 21.6124 26.5326 21.6206 26.5326 21.6288C26.4418 21.6617 26.3428 21.6864 26.2603 21.7111ZM23.116 21.8674C23.0417 21.4725 23.0417 21.4725 23.0417 21.4149C23.1242 21.4807 23.1573 21.5137 23.2563 21.5054C23.2728 21.4067 23.2976 21.3162 23.3223 21.2257C23.4461 21.2504 23.5781 21.2751 23.7019 21.2998C23.5204 21.4807 23.3883 21.5712 23.3223 21.8181C23.248 21.8345 23.182 21.851 23.116 21.8674ZM21.0611 21.9744C21.1766 21.8427 21.2922 21.8016 21.4572 21.7276C21.4655 21.7605 21.4655 21.7605 21.449 21.8345C21.3169 21.8756 21.1849 21.925 21.0611 21.9744ZM25.0224 22.0073C25.0141 21.9908 25.0059 21.9744 24.9976 21.9579C24.9151 21.9579 24.8738 21.9661 24.783 21.999C24.7335 21.9579 24.6757 21.925 24.618 21.9003C24.618 21.8345 24.6427 21.7934 24.6757 21.7358C24.7995 21.7193 25.0966 21.7522 25.0966 21.5959C25.0719 21.5795 25.0471 21.563 25.0306 21.5548C25.0306 21.5466 25.0471 21.5383 25.0554 21.5301C25.0719 21.5301 25.0884 21.5383 25.1049 21.5466C25.1296 21.6206 25.1296 21.6206 25.1627 21.67C25.1792 21.67 25.1957 21.6782 25.2122 21.6782C25.2287 21.6617 25.2452 21.6535 25.2534 21.6453C25.2369 21.5795 25.2204 21.5219 25.2122 21.4643C25.2204 21.4643 25.2369 21.4725 25.2534 21.4725C25.2534 21.4808 25.2617 21.4972 25.2699 21.5054C25.4597 21.5137 25.5175 21.4972 25.6496 21.6288C25.3855 21.9168 25.402 21.9661 25.0224 22.0073ZM23.4131 22.3528C23.4378 22.3281 23.4709 22.3199 23.4956 22.3034C23.5039 22.3199 23.5039 22.3281 23.5121 22.3446C23.4791 22.3446 23.4461 22.3528 23.4131 22.3528ZM24.0238 22.3939C24.1311 22.3117 24.2549 22.1636 24.4034 22.2294C24.4034 22.2376 24.4034 22.2458 24.4034 22.2541C24.2549 22.361 24.1971 22.3775 24.0238 22.3939ZM19.4188 23.0603C19.4436 22.9204 19.4683 22.7806 19.5013 22.6407C19.5921 22.6078 19.6911 22.5749 19.7902 22.5502C19.7984 22.649 19.8149 22.7148 19.7654 22.8135C19.6334 22.8135 19.5096 22.978 19.4188 23.0603ZM38.4907 23.0768C38.2926 22.8875 38.0863 22.6983 37.8883 22.5173C37.9955 22.5914 37.9955 22.5914 38.0203 22.5914C37.9708 22.4268 37.5994 22.1307 37.9543 22.0895C38.2514 22.3857 38.3422 22.6572 38.499 23.0521C38.499 23.0603 38.499 23.0603 38.4907 23.0768ZM19.7407 23.085C19.7489 23.0192 19.7654 22.9616 19.7819 22.904C19.7819 22.904 19.7902 22.904 19.7984 22.904C19.8067 22.9451 19.8149 22.9863 19.8314 23.0192C19.7984 23.0439 19.7737 23.0603 19.7407 23.085ZM20.929 23.1179C20.8713 23.0932 20.8218 23.0685 20.764 23.0521C20.7475 22.9451 20.731 22.83 20.7145 22.723C20.7557 22.5173 20.896 22.3528 20.9208 22.1389C21.1271 22.0649 21.3334 21.999 21.5397 21.9332C21.581 21.8098 21.614 21.5219 21.8038 21.5219C21.7461 21.9744 21.5645 22.8546 21.0446 23.0027C21.0116 23.0521 20.9868 23.1097 20.929 23.1179ZM21.4985 23.1426C21.4407 23.0685 21.3994 23.0109 21.3087 22.9863C21.3747 22.8875 21.5727 22.6325 21.6883 22.4433C21.713 22.4433 21.746 22.4433 21.7708 22.4433C21.6883 22.6572 21.6718 22.8053 21.6553 23.0439C21.5975 23.0768 21.548 23.1097 21.4985 23.1426ZM27.4651 23.2495C27.3991 23.0603 27.3249 22.8793 27.2506 22.6901C27.2341 22.6819 27.2093 22.6736 27.1928 22.6736C27.2918 22.5502 27.4404 22.3281 27.5889 22.287C27.6962 22.3939 27.721 22.9616 27.7375 23.1673C27.6467 23.2331 27.5889 23.2331 27.4651 23.2495ZM26.4171 23.2742C26.3923 23.2495 26.3923 23.2495 26.0374 23.1261C26.0374 23.0932 26.0374 23.0932 26.318 22.6572C26.5904 22.6572 26.6316 22.5996 26.6976 22.3199C26.8627 22.1883 27.036 22.0649 27.2093 21.9415C27.2093 21.8756 27.2093 21.818 27.2093 21.7605C28.1914 21.2175 29.1322 20.6252 30.1308 20.0986C30.271 20.0328 31.0633 19.5886 31.1788 19.6297C31.1871 19.6708 31.2201 19.7037 31.1953 19.7449C29.8667 20.2879 28.604 21.0447 27.3991 21.8098C27.3909 21.8181 27.3909 21.8345 27.3909 21.851C27.5064 21.9168 27.5064 21.9579 27.655 21.9826C27.6467 21.999 27.6467 22.0237 27.6385 22.0402C27.2918 22.361 26.7637 23.159 26.4171 23.2742ZM28.0181 23.34C28.0428 23.2989 28.0676 23.2577 28.1006 23.2248C28.1336 23.2495 28.1336 23.2495 28.1501 23.2907C28.1254 23.3071 28.1254 23.3071 28.0181 23.34ZM21.9276 23.5128C21.8863 23.4799 21.8451 23.4552 21.8121 23.4305C21.8451 23.0192 21.7543 22.7806 21.9359 22.361C22.0349 22.3117 22.1422 22.2705 22.2412 22.2294C22.3485 22.106 22.464 21.7851 22.5796 21.7276C22.5796 21.7851 22.5796 21.851 22.5878 21.9085C22.6373 21.9579 22.6869 21.9168 22.7364 21.8839C22.7776 22.1636 22.7364 22.0813 23.083 22.1883C23.1242 22.2458 23.1655 22.2952 23.2068 22.3528C23.2233 22.3528 23.3471 22.3199 23.3471 22.361C22.8849 22.4597 22.984 22.7888 22.7281 22.9287C22.6208 22.9287 22.5135 22.9369 22.4145 22.9451C22.2495 23.1343 22.0927 23.3236 21.9276 23.5128ZM20.2853 23.5375C20.2523 23.3894 20.2523 23.3976 20.0955 23.3729C20.0377 23.2413 19.8644 22.9369 19.8975 22.797C19.9965 22.7395 20.1368 22.6078 20.2523 22.6078C20.3266 22.7559 20.3679 22.7641 20.5247 22.7312C20.4834 22.9369 20.4751 23.4141 20.2853 23.5375ZM25.7816 23.7596C25.3442 23.3565 25.3442 23.3565 25.336 23.34C25.6991 22.9616 25.8229 23.3565 25.8641 23.7102C25.8559 23.7185 25.8476 23.7349 25.8394 23.7514C25.8229 23.7514 25.7981 23.7514 25.7816 23.7596ZM25.0719 23.9817C25.0224 23.9735 24.9811 23.9653 24.9316 23.957C24.8903 23.8501 24.75 23.595 24.7748 23.4799C24.7995 23.4634 24.8243 23.447 24.8408 23.4305C24.8408 23.4881 24.8491 23.5457 24.8573 23.6033C24.9646 23.5046 24.9646 23.5046 25.0224 23.4634C25.0801 23.5539 25.2534 23.776 25.2534 23.883C25.1874 23.9324 25.1461 23.957 25.0719 23.9817ZM25.2287 24.064C25.2534 23.9899 25.369 23.9653 25.402 23.8912C25.3277 23.7596 25.1296 23.4963 25.1296 23.3565C25.2947 23.2248 25.4432 23.1097 25.5175 22.9204C25.8724 22.7065 26.2107 22.468 26.5491 22.2294C26.5491 22.2212 26.5408 22.2129 26.5408 22.2129C26.5161 22.2129 26.4913 22.2212 26.4583 22.2212C26.0539 22.4351 25.5588 22.1471 25.1296 22.4515C25.1296 22.542 25.1544 22.5502 25.2369 22.5831C25.2204 22.6161 25.2039 22.649 25.1957 22.6819C25.0884 22.6819 25.0059 22.6819 24.9151 22.6161C24.552 22.6161 24.552 23.0274 24.2384 22.7395C24.4612 22.542 24.6923 22.3446 24.9151 22.1471C25.0719 22.1224 25.2287 22.106 25.3855 22.0895C25.4928 21.9661 25.6083 21.8345 25.7156 21.7111C25.8394 21.7111 25.8394 21.7687 25.8559 21.6124C25.9797 21.6864 26.0952 21.7522 26.2107 21.8263C26.6069 21.8263 26.6811 21.5959 27.069 21.7687C27.0855 21.818 27.0855 21.818 27.0773 21.9085C26.8132 22.106 26.5491 22.3034 26.285 22.5009C26.186 22.649 26.0127 23.0356 25.8559 23.1179C25.8806 23.4305 26.0044 23.595 25.8476 23.883C25.6496 23.9406 25.435 23.9982 25.2287 24.064ZM22.6786 24.2697C22.6786 24.2614 22.6786 24.2532 22.6786 24.245C22.6456 24.2285 22.6126 24.2121 22.5796 24.1956C22.5796 24.1709 22.5796 24.1462 22.5796 24.1216C22.6291 24.0969 22.6703 24.0722 22.7199 24.0558C22.7116 23.8994 22.7116 23.8994 22.6456 23.5046C22.7694 23.3647 22.7364 23.2577 22.7446 23.0685C22.9509 22.9451 22.9592 22.9204 23.0252 22.6983C23.1985 22.5914 23.3718 22.4268 23.5946 22.4597C23.5699 22.5173 23.5699 22.5338 23.5864 22.5996C23.6854 22.5996 23.768 22.5502 23.8587 22.5009C23.6772 22.8217 23.5616 22.8546 23.2068 22.9451C23.0665 23.2248 23.0335 23.6691 23.0995 23.9735C23.083 24.0146 23.083 24.0146 23.017 24.1133C22.9179 24.1216 22.8271 24.1298 22.7364 24.1462C22.7116 24.1545 22.6951 24.2697 22.6786 24.2697ZM23.5286 24.4753C23.3883 24.1462 23.4131 23.7596 23.5369 23.4223C23.6442 23.34 23.7514 23.2577 23.8587 23.1673C24.1558 23.2413 24.0733 23.3976 24.1888 23.5868C24.2384 23.5868 24.2879 23.5951 24.3374 23.5951C24.3374 23.7843 24.5685 23.5786 24.6592 23.5621C24.717 23.702 24.7665 23.8419 24.8243 23.9735C24.7088 24.1709 24.5107 23.9899 24.4117 23.9077C24.2549 23.9899 24.0981 24.245 23.9908 24.3848C23.9165 24.4177 23.9165 24.4177 23.5286 24.4753ZM23.3223 24.5082C23.1077 24.0804 23.215 24.064 23.1408 23.6033C23.215 23.4141 23.2645 23.2331 23.2976 23.0274C23.4709 22.9945 23.7184 22.8053 23.834 22.8053C23.8422 22.8135 23.8505 22.8217 23.867 22.83C23.8257 23.1179 23.6359 23.2084 23.4213 23.3729C23.3636 23.8007 23.2563 24.0969 23.3966 24.4918C23.3718 24.5 23.3471 24.5 23.3223 24.5082ZM18.7421 24.8867C18.6678 24.5082 18.6678 24.5082 18.6513 24.3519C18.8411 23.8089 19.0392 23.3565 19.3198 22.8629C19.295 22.9945 19.2785 23.1261 19.2537 23.2495C19.4188 23.3976 19.4931 23.0521 19.6251 23.0521C19.6086 23.1426 19.5839 23.2248 19.5921 23.3071C19.6004 23.3153 19.6169 23.3236 19.6334 23.3318C19.5756 23.4963 19.5178 23.6691 19.4601 23.8419C19.4023 23.8089 19.3363 23.7596 19.2785 23.7925C19.0969 24.1545 18.9236 24.5247 18.7421 24.8867ZM24.6097 25.0265C24.3786 24.9772 24.2384 24.5987 24.1146 24.4095C24.2053 24.2861 24.3044 24.1709 24.4199 24.064C24.783 24.3519 24.7748 23.9488 25.0884 24.1051C25.0389 24.1709 24.9976 24.7139 24.9646 24.8702C24.75 24.7962 24.75 24.7962 24.6757 25.0265C24.651 25.0265 24.6345 25.0265 24.6097 25.0265ZM22.3898 25.043C22.3733 25.0347 22.3567 25.0265 22.3485 25.0183C22.3485 24.8784 22.4475 24.6974 22.4888 24.5658C22.6043 24.5411 22.6456 24.426 22.6869 24.319C22.6951 24.4589 22.7364 24.6234 22.7364 24.7304C22.6538 24.8126 22.497 25.0183 22.3898 25.043ZM20.178 25.5695C20.2936 25.3474 20.4091 25.1252 20.5329 24.9031C20.6897 24.9031 20.7227 24.9031 20.8383 24.7962C20.9703 24.936 20.7557 25.0841 20.6815 25.1746C20.3761 25.1746 20.4421 25.1993 20.3761 25.4872C20.3183 25.5201 20.2441 25.5366 20.178 25.5695ZM22.4805 25.734C22.431 25.6435 22.3733 25.5613 22.3237 25.479C22.4063 25.2486 22.5961 24.8784 22.8354 24.8044C22.7776 25.0183 22.6208 25.3391 22.6208 25.5448C22.6291 25.5613 22.6456 25.5695 22.6621 25.5859C22.5878 25.66 22.5878 25.66 22.4805 25.734ZM22.332 25.7669C22.2082 25.6682 22.1587 25.6353 22.0101 25.6106C22.1669 25.3474 22.1669 25.0841 22.2082 24.7715C22.3237 24.4506 22.5218 24.2203 22.332 23.9159C21.9194 23.9159 21.7873 24.9278 21.7543 25.2322C21.7213 25.2322 21.6883 25.2322 21.6635 25.2404C21.6058 25.3145 21.548 25.4379 21.4572 25.4543C21.7295 25.0841 21.746 24.6974 21.8368 24.245C21.9276 24.1051 22.1999 23.7349 22.0349 23.5704C22.1752 23.3976 22.3155 23.2331 22.4558 23.0768C22.5135 23.0685 22.5631 23.0685 22.6126 23.0603C22.6126 23.2331 22.6456 23.34 22.5218 23.4634C22.5466 23.6362 22.5796 23.8089 22.6043 23.9817C22.5548 24.0064 22.5053 24.0311 22.4558 24.064C22.4558 24.1216 22.4558 24.1874 22.464 24.2532C22.4888 24.2697 22.5135 24.2861 22.5383 24.3026C22.5218 24.4506 22.4475 24.3931 22.3815 24.4918C22.3237 24.681 22.233 24.8702 22.2082 25.0677C22.2412 25.0841 22.2742 25.1006 22.3155 25.1252C22.3155 25.5695 22.1422 25.3227 22.365 25.7669C22.3485 25.7669 22.3402 25.7669 22.332 25.7669ZM23.1655 26.0796C23.0335 25.8821 22.9097 25.6847 22.7776 25.4872C22.7776 25.2322 23.0665 24.8949 22.8932 24.6974C22.8684 24.5987 22.8684 24.5987 22.8602 24.2614C22.9674 24.2367 22.9674 24.2367 23.0665 24.245C23.2315 24.5658 23.3471 24.8702 23.5699 25.1499C23.7267 25.4708 23.6524 25.553 23.5286 25.8903C23.4048 25.9479 23.281 26.0137 23.1655 26.0796ZM22.7364 26.277C22.5713 26.1371 22.4723 26.0878 22.4723 25.8657C22.5383 25.7916 22.6208 25.6271 22.7116 25.6024C22.8271 25.7752 22.9344 25.9479 23.0582 26.1207C23.017 26.1947 22.8106 26.1947 22.7364 26.277ZM24.3126 26.5403C24.1641 26.4744 24.0485 26.4498 23.9413 26.4169C23.8917 26.2441 23.6937 26.2441 23.8422 26.0549C23.801 25.9891 23.7349 25.9644 23.6689 25.9233C23.6689 25.7752 23.768 25.6024 23.8257 25.4625C23.8257 25.1499 23.4626 24.9525 23.4213 24.6892C23.5121 24.6728 23.5616 24.6728 23.5781 24.5823C23.7349 24.5658 23.8917 24.5411 24.0568 24.5247C24.3869 25.043 24.3869 25.043 24.4447 25.117C24.8986 25.1746 24.75 25.3062 24.7005 25.7258C24.9151 26.1536 24.9151 26.1536 24.9811 26.3181C24.7583 26.3922 24.5354 26.4662 24.3126 26.5403ZM21.5892 26.5649C21.5892 26.4745 21.5975 26.4415 21.6388 26.351C21.7213 26.351 21.7213 26.351 21.7213 26.3675C21.713 26.3675 21.7048 26.3675 21.6965 26.3675C21.6718 26.458 21.6305 26.4909 21.5892 26.5649ZM23.7597 26.6801C23.7349 26.6719 23.7102 26.6637 23.6854 26.6554C23.6772 26.5814 23.6772 26.5074 23.6772 26.4333C23.7184 26.4333 23.7597 26.4333 23.801 26.4333C23.801 26.5156 23.801 26.5979 23.801 26.6801C23.7845 26.6801 23.768 26.6801 23.7597 26.6801ZM19.4271 26.894C19.2868 26.7788 19.1382 26.6637 18.9897 26.5485C18.9897 25.4379 19.4353 24.2779 19.7902 23.2413C19.8232 23.2166 19.8562 23.1919 19.8975 23.1919C19.9717 23.3647 19.9635 23.5046 20.1615 23.5046C20.1698 23.6197 20.145 23.7102 20.2688 23.7102C20.3513 23.628 20.4339 23.5457 20.5164 23.4634C20.7062 23.8007 20.731 24.2285 20.8052 24.607C20.7145 24.7139 20.5412 24.7057 20.4504 24.7797C20.1698 25.3227 19.9552 25.734 19.5673 26.1947C19.5013 26.4086 19.4848 26.6472 19.4518 26.8693C19.4353 26.8858 19.4353 26.894 19.4271 26.894ZM18.0489 27.0915C18.1561 26.2852 18.2717 25.3967 18.577 24.6399C18.61 24.8044 18.5605 25.1335 18.7751 25.1088C19.3033 24.0064 19.3033 24.0064 19.3693 23.9159C19.3775 23.9324 19.394 23.9406 19.4023 23.9488C19.1465 24.7633 19.0062 25.553 18.8576 26.4004C18.6926 26.6061 18.6926 26.6061 18.6678 26.6143C18.5853 26.2194 18.5853 26.2194 18.5523 26.1454C18.5275 26.1454 18.5028 26.1454 18.478 26.1454C18.3707 26.5896 18.379 26.8035 18.0489 27.0915ZM24.1393 27.2725C24.1146 27.149 24.0981 27.0256 24.0733 26.9105C24.0981 27.0256 24.1311 27.149 24.1393 27.2725ZM33.7454 27.5604C33.6959 27.4781 33.6546 27.4123 33.6299 27.3218C33.6711 27.3136 33.7124 27.3136 33.7537 27.3054C33.7867 27.3465 33.8032 27.3712 33.8032 27.4205C33.8114 27.4205 33.8197 27.4205 33.8362 27.4288C33.8362 27.4617 33.8279 27.5028 33.8279 27.5357C33.7949 27.5439 33.7702 27.5522 33.7454 27.5604ZM39.6131 27.5768C39.6213 27.511 39.6296 27.4452 39.6461 27.3794C39.6131 27.3054 39.4728 27.0997 39.4893 27.0256C39.6791 27.0503 39.7038 27.0586 39.8606 26.9516C39.8937 26.9598 39.9349 26.9681 39.9679 26.9763C39.8276 27.3383 39.9844 27.3876 39.6131 27.5768ZM39.6461 27.7743C39.6378 27.7578 39.6296 27.7496 39.6213 27.7414C39.6378 27.7414 39.6461 27.7414 39.6626 27.7414C39.6708 27.7661 39.6708 27.7661 39.6461 27.7743ZM18.8741 28.6792C18.7833 28.5558 18.6926 28.4242 18.6018 28.3008C18.5193 27.9964 18.7173 27.5768 18.5275 27.33C18.511 27.33 18.4862 27.33 18.4697 27.33C18.379 27.4864 18.2964 27.6509 18.2139 27.8154C18.2057 27.8154 18.1974 27.8237 18.1892 27.8237C18.1396 27.6344 18.0819 27.4452 18.0406 27.256C18.346 26.9598 18.4037 26.9105 18.5028 26.4991C18.577 26.8776 18.577 26.894 18.8411 26.5896C19.3528 26.9763 19.5343 27.0832 19.5921 27.7332C19.4436 28.0211 19.295 28.309 19.1382 28.597C18.9401 28.671 18.9401 28.671 18.8741 28.6792ZM22.6373 28.8026C22.6373 28.7944 22.6291 28.7862 22.6291 28.7862C22.6456 28.7697 22.6621 28.7451 22.6786 28.7286C22.6786 28.7533 22.6869 28.778 22.6869 28.8026C22.6703 28.8026 22.6538 28.8026 22.6373 28.8026ZM24.4694 28.8438C24.3539 28.7286 24.3869 28.5147 24.3787 28.3584C24.684 28.3255 24.1393 27.9964 24.2384 27.8072C24.2384 27.7414 24.2301 27.6673 24.2218 27.6015C24.3869 27.8812 24.5437 28.161 24.7088 28.4407C24.6923 28.4489 24.552 28.3913 24.5024 28.3913C24.4282 28.4983 24.4694 28.7204 24.4694 28.8438ZM25.2864 29.0165C25.2204 28.9919 25.2204 28.9919 24.6015 28.8849C24.6015 28.7697 24.6015 28.6546 24.6015 28.5476C24.7005 28.5723 24.8078 28.5723 24.8491 28.671C25.3442 28.7204 25.1627 28.2926 25.1792 27.873C25.2452 27.8072 25.3112 27.7414 25.3772 27.6756C25.435 27.7002 25.4267 27.7661 25.501 27.7743C25.5423 28.309 25.5423 28.309 25.5423 28.4653C25.4267 28.6463 25.2617 28.7944 25.3195 29.0165C25.3029 29.0165 25.2947 29.0165 25.2864 29.0165ZM22.8189 29.2551C22.7941 29.1317 22.6621 29.1235 22.5466 29.0824C22.5466 29.0248 22.5383 28.9672 22.5383 28.9096C22.6208 28.9096 22.6951 28.9096 22.7776 28.9096C22.9344 28.6628 22.6291 28.3913 23.116 28.3995C23.2728 28.5476 23.4378 28.6957 23.6029 28.8356C23.5946 28.852 23.5946 28.852 23.5039 28.8849C23.215 29.4114 23.2068 29.0001 22.8189 29.2551ZM18.4945 29.4608C18.4697 29.3456 18.4697 29.3456 18.445 29.3045C18.4285 29.2963 18.4037 29.2963 18.3872 29.2963C18.3377 28.6792 18.1644 28.1692 18.445 27.6262C18.4615 28.2185 18.4532 28.2926 18.7751 28.7451C18.7421 29.0165 18.7256 29.288 18.4945 29.4608ZM20.1285 29.5513C19.8479 29.3621 19.7241 28.4242 19.6664 28.054C19.9222 28.0211 19.5508 27.0997 19.5756 26.9434C19.5839 26.9352 19.6004 26.9269 19.6169 26.9187C19.6334 26.82 19.6581 26.3181 19.6746 26.2688C19.8892 26.022 20.0625 25.734 20.3679 25.6024C20.3844 25.7423 20.3844 25.7423 20.4421 27.1655C20.4999 27.2149 20.5494 27.2395 20.6154 27.2725C20.6815 27.2395 20.7392 27.1408 20.7887 27.075C20.9868 27.075 21.0776 27.7249 21.0776 27.8977C20.1533 29.5348 20.1533 29.5348 20.1285 29.5513ZM22.1834 29.65C22.0431 29.3374 22.1339 29.107 22.4228 28.9178C22.4228 29.0001 22.4393 29.0824 22.4393 29.1646C22.5301 29.1975 22.6208 29.2304 22.7116 29.2551C22.7281 29.3703 22.7281 29.3703 22.7281 29.4279C22.5713 29.3703 22.5713 29.3703 22.398 29.3292C22.3898 29.3456 22.3733 29.3621 22.365 29.3785C22.3898 29.4443 22.4228 29.5102 22.4475 29.5842C22.3485 29.6089 22.266 29.6336 22.1834 29.65ZM17.9911 29.8063C17.9498 29.0577 17.9416 28.3008 17.9911 27.5439C18.1396 28.0869 18.3129 28.7204 18.2469 29.288C18.0654 29.6336 18.0654 29.6336 17.9911 29.8063ZM37.9955 29.9626C37.9955 29.7981 38.0286 29.6089 37.8222 29.6171C37.8552 29.4361 37.8965 29.2551 37.9295 29.0824C37.9955 29.0659 38.0533 29.0577 38.1193 29.0495C38.1688 28.8849 38.1689 28.7204 38.2349 28.5558C38.2679 28.5558 38.3009 28.5476 38.3339 28.5476C38.3257 28.6792 38.3256 28.6792 38.3422 29.0165C38.1771 29.3621 38.0368 29.3868 38.3339 29.6089C38.2514 29.8886 38.2596 29.8886 37.9955 29.9626ZM39.3737 30.1025C39.4563 29.7981 39.5883 29.7405 39.8359 29.5513C39.8359 29.395 39.8359 29.395 39.8194 29.1893C39.8359 29.1811 39.8606 29.1811 39.8854 29.1811C40.133 28.7533 39.8606 28.3749 39.8937 27.9388C40.1908 28.161 40.2898 28.6217 40.331 28.9919C40.2155 28.9919 40.1908 29.3045 40.1577 29.395C39.7781 29.4937 40.034 29.5184 39.9679 29.7899C39.9597 29.7899 39.9514 29.7981 39.9432 29.7981C39.9102 29.757 39.8854 29.7158 39.8524 29.6829C39.8276 29.6829 39.8029 29.6829 39.7864 29.6829C39.6461 29.8228 39.514 29.9626 39.3737 30.1025ZM30.0977 30.1436C29.8832 30.0696 29.3468 29.7981 29.1404 29.831C28.9836 29.9626 28.9919 29.938 28.8433 29.8063C28.5875 29.8063 28.3729 30.0284 28.1089 30.0531C28.0428 29.9955 27.9933 29.9709 27.9108 29.938C27.8613 29.7076 27.8118 29.4773 27.7622 29.2469C27.5972 29.2058 27.2918 29.1811 27.2506 29.0083C27.4651 28.7039 27.4569 28.7615 27.3414 28.3913C27.2011 28.3913 27.069 28.4407 26.937 28.49C26.7967 28.4489 26.6646 28.4078 26.5243 28.3749C26.4171 28.0375 26.4831 27.9388 26.7059 27.7414C26.7472 27.6098 26.7884 27.4781 26.8297 27.3465C27.1928 27.3629 27.2011 27.3054 27.3249 27.6098C27.3991 27.6427 27.6302 27.6427 27.688 27.6015C27.6797 27.5193 27.6715 27.4288 27.6632 27.3383C27.6962 27.33 27.7292 27.3218 27.7787 27.3136C27.787 27.2807 27.8035 27.256 27.82 27.2313C27.9933 27.2149 27.9768 27.1984 27.9851 27.0256C28.3399 27.0339 28.6948 27.0421 29.0579 27.0586C29.0909 27.1573 29.1239 27.2478 29.1569 27.3465C29.256 27.3794 29.355 27.4123 29.4623 27.437C29.4623 27.4864 29.4788 27.5357 29.5118 27.5686C29.8749 27.5028 29.8749 27.5028 29.9244 27.5028C30.0152 27.7661 30.106 28.0293 30.1968 28.2926C30.2545 28.3502 30.3123 28.3008 30.3866 28.3008C30.4609 28.3995 30.6672 28.3995 30.7827 28.4078C30.956 28.5723 31.0055 28.671 31.2449 28.6792C31.2696 28.7122 31.2944 28.7368 31.3274 28.7697C31.2779 28.9014 31.1706 28.8356 31.1376 29.0824C30.989 29.0906 30.8322 29.107 30.6754 29.1153C30.6424 29.1893 30.6424 29.1893 30.5764 29.4772C30.0317 29.5924 30.172 29.5348 30.1225 30.1436C30.1143 30.1436 30.106 30.1436 30.0977 30.1436ZM34.4221 30.2012C33.96 29.9297 33.5886 30.0285 33.11 30.1189C32.9532 29.9955 32.7964 29.8721 32.6396 29.7487C32.0866 29.5924 32.0866 29.5924 32.0206 29.5595C31.9463 29.2387 31.8803 29.0165 31.5997 28.7944C31.5997 28.7862 31.5997 28.778 31.5997 28.7697C31.7318 28.6957 31.8638 28.6299 32.0041 28.5558C32.326 28.5805 32.6396 28.6052 32.9697 28.6052C33.0852 28.4489 32.9862 28.2268 33.1017 28.0458C33.2255 28.054 33.2255 28.054 33.4401 28.1116C33.7042 28.3913 33.6629 28.49 33.9765 28.2679C34.1993 28.2926 34.678 28.4078 34.876 28.3419C35.2144 28.1034 35.3134 28.0211 35.7178 27.9717C35.8003 28.4736 35.7343 28.3584 36.1717 28.2679C36.2212 28.3173 36.2707 28.3666 36.3203 28.416C36.2955 28.4818 36.1965 28.5394 36.1387 28.5805C35.9901 28.7451 35.8416 28.9261 35.7013 29.0988C35.5775 29.1153 35.4455 29.1235 35.3382 29.1811C35.3382 29.2798 35.396 29.3538 35.4372 29.4443C35.4455 29.6665 34.612 30.1683 34.4221 30.2012ZM28.4637 30.448C28.3729 30.3657 28.2904 30.2835 28.2079 30.2094C28.2079 30.193 28.2161 30.1848 28.2161 30.1683C28.2739 30.1436 28.3399 30.1272 28.3977 30.1025C28.4637 30.2012 28.5793 30.3246 28.604 30.4398C28.5627 30.4398 28.5132 30.4398 28.4637 30.448ZM38.4907 30.5796C38.3834 30.2177 38.3009 30.0614 38.4247 29.7158C38.4577 29.7323 38.4577 29.7323 38.7713 30.0531C38.73 30.2917 38.7053 30.4316 38.4907 30.5796ZM28.7278 30.6948C28.4637 30.6701 28.1501 30.5467 28.0676 30.2588C28.1584 30.2588 28.3564 30.4892 28.4225 30.555C28.505 30.5467 28.6948 30.555 28.7691 30.5056C28.7691 30.3657 28.604 30.2012 28.5215 30.086C28.5215 30.0696 28.5297 30.0531 28.5297 30.0367C28.9094 29.8721 28.7773 30.1189 29.0084 30.0696C29.3302 29.8475 29.6026 30.1189 29.9492 30.2177C29.9492 30.2259 29.9574 30.2341 29.9574 30.2423C29.7759 30.3328 29.5943 30.4233 29.421 30.5138C28.8351 30.6043 28.8351 30.6043 28.8103 30.6208C28.8021 30.6455 28.7938 30.6619 28.7856 30.6866C28.7691 30.6948 28.7526 30.6948 28.7278 30.6948ZM39.3902 30.7771C39.349 30.6372 39.3325 30.6043 39.2334 30.4974C39.2417 30.4809 39.2499 30.4645 39.2582 30.4562C39.3242 30.4727 39.3242 30.4727 39.415 30.5138C39.4067 30.5961 39.4067 30.6866 39.3985 30.7689C39.3902 30.7689 39.3902 30.7689 39.3902 30.7771ZM19.2703 30.7771C19.0722 30.7277 18.9154 30.4892 18.7668 30.3493C18.7668 30.1025 18.7668 29.8557 18.7668 29.6089C18.8081 29.3292 18.9071 29.0659 18.9566 28.7862C19.0392 28.7615 19.13 28.7451 19.2207 28.7286C19.3775 28.4324 19.5261 28.1445 19.6829 27.8566C19.6911 27.8812 19.6994 27.9141 19.7076 27.9471C19.4601 27.9964 19.9057 29.4361 19.9552 29.6253C19.8892 29.7981 19.8314 29.9873 19.7654 30.1683C19.328 29.9297 19.3363 30.5879 19.3363 30.7853C19.3033 30.7771 19.2868 30.7771 19.2703 30.7771ZM27.5889 31.065C27.5642 31.0486 27.5394 31.0404 27.5229 31.0321C27.5147 30.5632 27.3001 30.4151 27.0195 30.0284C26.9617 29.7816 26.9782 29.6829 26.7719 29.5431C26.7719 29.3621 26.8875 29.3456 26.6316 29.1811C26.5078 29.1729 26.384 29.1729 26.2685 29.1729C26.3593 28.9507 26.4501 28.7286 26.5408 28.5147C26.6399 28.5147 26.7472 28.5394 26.8462 28.5641C26.6976 29.0577 26.7142 28.9343 27.1928 29.1235C27.2093 29.1482 27.2176 29.1729 27.2341 29.1975C27.3909 29.2387 27.5394 29.288 27.6962 29.3292C27.7375 29.5513 27.787 29.7734 27.8365 29.9955C27.8778 30.0284 27.9933 30.086 28.0676 30.1354C27.8943 30.1601 27.9768 30.2094 27.9768 30.3575C27.6632 30.5056 27.7127 30.4809 27.8118 30.8018C27.7622 30.884 27.721 30.9663 27.6715 31.0404C27.6302 31.0486 27.6054 31.0568 27.5889 31.065ZM23.7019 31.065C23.5864 30.9416 23.4626 30.81 23.3553 30.6948C23.215 30.3246 22.8354 29.7487 22.9179 29.3456C23.4131 29.3127 23.3553 29.3785 23.6112 28.9836C23.7845 28.9672 23.834 29.0001 23.9908 29.0906C24.032 29.4855 24.0568 29.5102 23.8257 29.8063C23.8257 30.2012 23.8752 30.6043 23.867 30.9992C23.8422 30.991 23.8175 30.9828 23.7927 30.9745C23.7432 30.9992 23.7432 31.0074 23.7267 31.065C23.7267 31.065 23.7102 31.065 23.7019 31.065ZM26.7472 31.1555C26.6894 31.1226 26.6316 31.0897 26.5656 31.0568C26.4666 30.4562 26.0787 30.0696 25.7321 29.5677C25.7816 29.5677 25.8971 29.6007 25.9797 29.6007C26.0457 29.4937 26.0457 29.4937 26.1282 29.3209C26.285 29.3127 26.4336 29.3045 26.5904 29.3045C26.7307 29.4443 26.6151 29.4032 26.6151 29.576C26.6811 29.6253 26.7554 29.6747 26.8297 29.7241C26.9287 30.2341 27.3744 30.5056 27.3991 30.991C27.0938 30.9005 27.0443 31.0568 26.7472 31.1555ZM18.1892 31.2625C18.1396 30.9334 18.0736 30.6126 18.0571 30.2753C18.3625 30.4316 18.3625 30.6126 18.4697 30.9334C18.3872 31.0239 18.2552 31.1391 18.2139 31.2542C18.2057 31.2625 18.2057 31.2625 18.1892 31.2625ZM28.3647 31.3118C28.3482 31.2049 28.3399 31.0979 28.3234 30.9992C28.0758 30.9992 28.0346 31.2049 27.754 31.1144C27.9025 30.8265 27.919 30.8511 27.8365 30.5385C28.1254 30.4151 28.1419 30.555 28.3894 30.7689C28.5132 30.7853 28.6453 30.8018 28.7773 30.8182C28.7691 30.8758 28.7691 30.9252 28.7691 30.9828C28.9011 31.1062 28.9341 31.1144 28.9094 31.3036C28.7195 31.3036 28.538 31.3118 28.3647 31.3118ZM28.8103 31.5833C28.8598 31.5422 28.9176 31.4599 28.9836 31.4599C29.0084 31.4846 29.0332 31.5093 29.0579 31.534C29.0166 31.5586 29.0166 31.5586 28.8103 31.5833ZM37.715 32.1674C37.6242 32.0769 37.8222 31.9042 37.88 31.8466C37.7397 31.8137 37.5582 31.8384 37.5829 31.6738C37.6572 31.6491 37.7397 31.6245 37.814 31.608C37.6159 31.427 37.4921 31.2789 37.2363 31.2213C37.1208 30.991 37.4014 30.6208 37.5251 30.4562C37.4756 30.4562 37.4261 30.4562 37.3766 30.4645C37.3188 30.5467 37.2611 30.629 37.2115 30.7113C37.0465 30.7113 36.8567 30.555 36.7164 30.4727C36.7081 30.448 36.6999 30.4233 36.6999 30.3987C36.8649 30.1272 37.03 29.8557 37.195 29.5842C37.2033 29.5842 37.2198 29.576 37.2363 29.576C37.5334 30.3904 37.7892 31.2213 38.0121 32.0605C38.0121 32.0687 38.0038 32.0769 37.9955 32.0934C37.7975 32.1592 37.7975 32.1592 37.715 32.1674ZM19.5508 32.2826C19.2785 31.9453 19.1465 31.6985 18.9814 31.3036C18.7091 31.2625 18.6596 31.5751 18.6018 31.7643C18.5935 31.7643 18.5853 31.7643 18.577 31.7643C18.478 31.6409 18.3707 31.5257 18.2717 31.4106C18.3047 31.2543 18.4862 31.1062 18.5853 30.9828C18.5605 30.7606 18.4532 30.5385 18.379 30.3328C17.8673 30.0614 18.0324 30.0449 18.2139 29.576C18.2139 29.7158 18.1726 30.012 18.2552 30.1272C18.2717 30.1272 18.2882 30.1272 18.3047 30.1272C18.3872 30.0284 18.346 29.5595 18.346 29.4279C18.3542 29.4279 18.3625 29.4279 18.379 29.4279C18.379 29.4937 18.3872 29.5595 18.4285 29.6171C18.5193 29.6171 18.5853 29.5513 18.6513 29.4937C18.6513 29.7899 18.643 30.0943 18.643 30.3904C18.8741 30.6126 19.0144 30.8511 19.3363 30.8923C19.3363 31.1062 19.3363 31.3283 19.3445 31.5422C19.5508 32.2744 19.5508 32.2744 19.5508 32.2826ZM26.904 32.5952C26.6234 32.5047 26.3345 32.406 26.0539 32.3155C26.0539 32.1921 26.2768 32.1263 26.2768 31.9782C26.2107 31.9042 26.1365 31.8301 26.0622 31.7561C26.1282 31.5504 26.219 31.1638 26.5078 31.1638C26.7802 31.2872 26.9535 31.3036 27.1763 31.0568C27.4239 31.1308 27.6797 31.2131 27.9273 31.2954C28.0181 31.246 28.1089 31.1967 28.2079 31.1473C28.2409 31.3777 28.2409 31.3777 28.2574 31.4188C28.3069 31.4352 28.3069 31.4352 28.8103 31.4435C28.67 31.5833 28.2739 31.4681 28.1501 31.6409C28.1501 31.7808 28.1501 31.8466 28.0676 31.9618C27.9933 31.9618 27.919 31.9618 27.8448 31.9618C27.787 32.0769 27.7292 32.2003 27.6715 32.3155C27.2671 32.3237 27.2671 32.3237 27.102 32.3402C27.0525 32.4225 27.003 32.5047 26.9535 32.587C26.937 32.587 26.9205 32.5952 26.904 32.5952ZM24.5602 33.0312C24.5107 32.9819 24.4529 32.9408 24.4034 32.8996C24.4034 32.8585 24.75 32.7433 24.7913 32.7269C24.7913 32.7515 24.5767 33.023 24.5602 33.0312ZM24.3456 33.6071C23.933 33.5413 23.6112 33.3932 23.2315 33.2205C23.083 33.2451 22.9427 33.3356 22.8024 33.3932C22.6951 32.9819 22.4393 32.9078 22.0597 32.8338C21.9936 32.4883 21.9194 32.1427 21.8533 31.7972C21.8616 31.6245 21.9194 31.2707 21.9359 31.0733C21.8286 29.9873 21.8286 29.9873 21.8203 29.7899C21.8946 29.6994 21.9359 29.6582 21.9441 29.5431C21.8698 29.4937 21.7956 29.5842 21.7378 29.6253C21.7543 29.3292 21.7543 29.3292 21.7461 29.1235C21.7213 29.1235 21.6883 29.1235 21.6635 29.1235C21.5562 29.6089 21.4985 30.1354 21.4324 30.6372C21.3747 30.629 21.3169 30.6208 21.2591 30.6208C20.4009 29.4114 20.4009 29.4114 20.3844 29.3703C20.6319 28.9261 20.8878 28.4818 21.1354 28.0375C21.2344 28.2844 21.2344 28.2844 21.2509 28.3008C21.6305 27.6673 22.0266 27.0421 22.4558 26.4333C22.4228 26.3346 22.3898 26.203 22.3072 26.1207C22.2495 26.1289 22.1999 26.1454 22.1504 26.1536C22.1504 26.096 22.1752 26.022 22.1339 25.9808C22.1092 25.9808 22.0762 25.9808 22.0514 25.9808C22.0101 26.0631 21.9689 26.1371 21.9276 26.2194C21.7956 26.203 21.7956 26.2359 21.7956 26.3593C21.7791 26.351 21.7626 26.3428 21.7461 26.3428C21.7708 26.3017 21.7543 26.2194 21.7461 26.1783C21.8368 25.9315 21.8203 25.8081 22.0762 25.7176C22.3072 25.8492 22.3485 25.8903 22.4145 26.1536C22.497 26.2194 22.5878 26.2935 22.6703 26.3675C22.6621 26.4333 22.6456 26.4991 22.6373 26.5732C22.6126 26.532 22.5961 26.532 22.5631 26.5156C22.431 26.6966 22.431 26.6966 22.4145 26.7459C22.5218 26.8364 22.6373 26.9681 22.7859 26.9269C22.8519 27.0832 23.017 27.075 23.1738 27.1079C23.5616 27.4699 23.4296 28.0951 24.0981 28.0622C24.1393 28.0046 24.1393 28.0046 24.1558 28.0046C24.2053 28.0787 24.2549 28.161 24.3044 28.235C24.2879 28.2432 24.2714 28.2514 24.2631 28.2597C24.2879 28.6217 24.2796 28.6957 24.0816 28.9836C23.6772 28.7615 23.3718 28.3008 22.9179 28.2761C22.7776 28.2021 22.6373 28.128 22.497 28.054C22.3567 27.7578 22.5135 27.7414 22.1834 27.6427C22.1504 27.5604 22.1174 27.4781 22.0927 27.3959C22.1092 27.3876 22.1257 27.3794 22.1504 27.3794C22.1504 27.3054 22.1504 27.2971 22.1009 27.2395C22.0844 27.2395 22.0762 27.2395 22.0679 27.2395C22.0101 27.33 21.2674 28.2844 21.3582 28.5476C21.4655 28.6134 21.5893 28.671 21.6223 28.6957C21.6883 28.8191 21.8946 29.2058 22.0431 29.1729C22.0514 29.1975 22.0514 29.1975 21.9689 29.4443C22.0679 29.6747 22.0679 29.6747 22.1339 29.7652C22.2825 29.7652 22.4475 29.7076 22.5961 29.6747C22.5961 29.6089 22.5796 29.5677 22.5548 29.5019C22.6373 29.5266 22.7199 29.5513 22.8106 29.5842C23.017 30.1272 23.1655 30.8182 23.6854 31.1638C23.7432 31.6162 23.7762 32.0934 23.7927 32.5459C23.9825 32.7104 25.0306 33.3192 24.3456 33.6071ZM20.5247 33.8046C20.178 33.3356 19.9965 33.0724 19.7572 32.5294C19.6581 32.1921 19.5591 31.863 19.4683 31.534C19.4683 31.1555 19.4601 30.7771 19.4601 30.3987C19.5343 30.3493 19.6004 30.2999 19.6746 30.2506C19.7241 30.3082 19.7324 30.3164 19.8067 30.3328C19.8892 30.1272 19.9717 29.9215 20.0543 29.7158C20.1038 29.757 20.1285 29.7734 20.1863 29.7816C20.2441 29.7076 20.3018 29.6336 20.3679 29.5595C21.0776 30.5714 21.0776 30.5714 21.2179 30.7442C21.2839 30.7524 21.3499 30.7524 21.4159 30.7606C21.4159 30.9334 21.4655 31.0979 21.4737 31.2707C21.4572 31.3612 21.4159 31.97 21.3169 32.0276C21.2014 32.225 21.0858 32.4307 20.9703 32.6364C20.863 32.6364 20.7557 32.6364 20.6484 32.6446C20.5907 32.7022 20.6072 32.8914 20.6072 32.9819C20.5412 32.9901 20.4916 32.9901 20.4504 33.0312C20.5247 33.7634 20.5247 33.7634 20.5247 33.8046ZM31.5667 33.8293C31.4842 33.5331 32.0454 33.7963 32.0619 33.8046C31.8968 33.8128 31.7318 33.821 31.5667 33.8293ZM31.0551 33.9362C30.5599 33.7388 30.139 33.6236 29.7346 33.2945C30.0317 32.8914 30.6012 33.5166 30.8652 33.7141C30.9725 33.7141 31.0798 33.7223 31.1953 33.7305C31.1788 33.8128 31.1128 33.8786 31.0551 33.9362ZM27.688 33.9856C27.5559 33.9198 27.4074 33.8128 27.2671 33.7963C27.2093 33.8457 27.1598 33.8951 27.102 33.9527C27.0112 33.928 26.904 33.6565 26.8544 33.5742C26.5656 33.4755 26.285 33.3768 26.0044 33.2863C26.0044 33.0559 26.384 33.3521 26.384 33.0806C26.2768 32.8009 26.2768 32.8009 26.1282 32.4636C26.384 32.5459 26.7472 32.7186 27.0112 32.7186C27.0608 32.6364 27.1103 32.5459 27.168 32.4554C27.7457 32.3402 27.688 32.5952 27.919 32.0852C27.9851 32.0852 28.0593 32.0769 28.1336 32.0687C28.2409 31.9124 28.2822 31.8713 28.2904 31.682C28.8351 31.5669 28.7113 31.5257 28.5462 32.0358C28.538 32.0769 28.538 32.1263 28.538 32.1674C28.571 32.2086 28.8103 32.4554 28.7938 32.5047C28.7443 32.4636 28.6783 32.3731 28.6205 32.4307C28.6205 32.513 28.67 32.6446 28.6288 32.7186C28.439 32.8667 28.2574 33.0148 28.0593 33.1629C27.919 33.1876 27.8035 33.0642 27.655 33.0642C27.3414 33.4261 27.6054 33.5166 27.721 33.9773C27.7045 33.9856 27.7045 33.9856 27.688 33.9856ZM23.5286 34.2488C22.9922 34.1583 22.5713 33.9856 22.0679 33.7634C22.0762 33.492 22.0844 33.2205 22.0844 32.949C22.464 33.0148 22.6043 33.1217 22.7034 33.5084C22.8437 33.5989 23.0747 33.3521 23.2398 33.3521C23.4213 33.4344 23.5946 33.5249 23.7845 33.6071C23.8175 33.7799 23.8505 33.9773 23.834 34.1501C23.7267 34.1912 23.6442 34.2324 23.5286 34.2488ZM22.1009 35.1209C21.4159 34.8329 21.2014 34.4545 20.6567 33.8539C20.5577 33.1958 20.5577 33.1958 20.5659 33.1217C20.7805 33.0724 20.7062 32.9901 20.7145 32.768C21.2014 32.768 21.1106 32.6035 21.3829 32.1345C21.3912 32.1345 21.4077 32.1263 21.4159 32.1263C21.4324 32.1674 21.4324 32.1674 21.4572 32.8667C21.6058 33.1876 21.8286 33.4837 21.7873 33.8375C21.68 33.8786 22.0431 34.4134 22.1092 34.5121C22.2577 34.6931 22.4063 34.8658 22.5548 35.0468C22.4063 35.0633 22.2495 35.088 22.1009 35.1209ZM39.1344 35.1702C39.1262 35.162 39.1179 35.1538 39.1097 35.1456C39.1509 35.1291 39.1509 35.1291 39.1674 35.1373C39.1674 35.1456 39.1674 35.1538 39.1757 35.1702C39.1674 35.1702 39.1509 35.1702 39.1344 35.1702ZM38.6888 35.1867C38.6393 35.088 38.6145 35.0139 38.6475 34.8987C38.664 34.9892 38.6805 35.088 38.6888 35.1867ZM36.0397 35.269C35.8746 35.1455 36.2047 35.0057 36.3037 34.9646C36.2625 35.088 36.2212 35.1538 36.1387 35.2607C36.1057 35.2607 36.0727 35.269 36.0397 35.269ZM35.2061 35.3924C34.8843 35.1867 35.0411 35.3101 35.0411 35.0468C34.8925 34.9646 34.6037 34.8576 34.6037 34.6519C35.1566 34.4051 35.0246 34.4463 35.5693 34.8C35.5693 34.9728 35.2722 35.2031 35.2061 35.3924ZM43.954 35.4746C44.0447 34.907 44.0695 34.364 44.086 33.7717C44.6719 32.9737 45.1506 32.1592 45.522 31.246C45.2331 32.7515 44.6967 34.1748 43.954 35.4746ZM38.9694 35.705C38.9694 35.6885 38.9694 35.6721 38.9694 35.6556C38.9776 35.6556 38.9941 35.6556 39.0106 35.6556C38.9859 35.6721 38.9776 35.6885 38.9694 35.705ZM21.8121 35.8366C21.7461 35.5733 21.6883 35.3183 21.6305 35.0633C21.7956 35.0633 21.9689 35.2114 22.1422 35.2278C22.9427 35.1126 22.7941 35.1456 22.2907 34.5203C22.497 34.6108 22.9262 34.8165 23.248 34.9481C23.2068 35.3348 22.7611 35.5322 22.4723 35.7626C22.2495 35.7872 22.0266 35.8119 21.8121 35.8366ZM35.3134 36.1081C35.2474 35.6885 35.1896 35.6803 34.843 35.3841C34.6532 35.4253 34.4799 35.5075 34.2984 35.5816C34.2901 35.4746 34.2818 35.3677 34.2736 35.2607C34.2076 35.2031 34.1333 35.1456 34.092 35.0715C34.125 35.0057 34.1498 34.9399 34.1911 34.8905C34.2406 34.8823 34.2983 34.8741 34.3479 34.8658C34.3726 34.8329 34.3644 34.7753 34.3479 34.7424C34.3974 34.7342 34.4386 34.726 34.4882 34.7178C34.6202 34.9317 34.6862 34.9728 34.9008 35.0962C34.9008 35.1702 34.8513 35.2196 34.8595 35.3019C34.9916 35.3841 35.66 35.7461 35.5775 35.9765C35.4867 36.0176 35.396 36.067 35.3134 36.1081ZM20.9951 36.2315C20.6567 35.9107 19.9305 34.907 20.0295 34.4956C20.1038 34.5285 20.1615 34.5697 20.2441 34.5697C20.3018 34.4956 20.2853 34.2817 20.2853 34.183C20.2688 34.1666 20.2688 34.1666 19.9552 34.1007C19.9387 33.8375 20.013 33.6812 20.0955 33.4344C20.3018 33.7223 20.4504 33.8868 20.5164 34.2324C19.9222 34.6602 21.0446 35.5075 21.1766 35.9765C21.0281 36.0505 21.0858 36.1163 20.9951 36.2315ZM39.1509 36.248C39.1922 36.1986 39.2334 36.1492 39.2747 36.0916C39.283 36.0916 39.2912 36.0916 39.2995 36.0999C39.2499 36.141 39.1922 36.1904 39.1509 36.248ZM39.5058 36.3055C39.5058 36.215 39.5058 36.1492 39.448 36.0916C39.4893 36.0423 39.4893 36.0423 39.6626 35.705C39.6956 35.7132 39.7286 35.7214 39.7616 35.7297C39.7946 35.8037 39.8689 35.9024 39.8194 35.9682C39.6296 35.9353 39.6626 36.1739 39.6543 36.2891C39.5966 36.2973 39.5553 36.3055 39.5058 36.3055ZM42.1796 36.7004C42.1384 36.6264 42.0971 36.5523 42.0559 36.4865C41.9156 36.4618 41.7257 36.5935 41.602 36.6593C41.7588 36.4372 41.9073 36.2233 42.0641 36.0094C42.1961 35.9353 43.1617 35.3512 43.2607 35.3841C43.2442 35.417 43.2442 35.417 43.2442 35.4664C43.3103 35.5158 43.3845 35.5158 43.4671 35.5075C43.2938 35.6968 43.17 35.7543 42.9306 35.8531C42.6418 36.0999 42.518 36.4783 42.1796 36.7004ZM41.4121 36.758C41.3626 36.6922 41.3626 36.6922 41.3296 36.6757C41.4534 36.6757 41.4534 36.6757 41.5524 36.684C41.5029 36.7004 41.4617 36.7333 41.4121 36.758ZM34.5789 36.7909C34.3561 36.6017 34.1333 36.4948 34.026 36.758C33.7702 36.3796 33.7702 36.3796 33.7372 36.2891C33.7949 35.9765 33.7949 35.9436 33.6051 35.6968C33.6216 35.4006 33.8527 35.0468 34.1415 35.2854C34.1746 35.417 34.1416 35.5898 34.1911 35.705C34.4056 35.705 34.6037 35.5487 34.8183 35.5158C35.0246 35.705 35.1896 35.8037 35.1731 36.1245C34.6697 36.1739 34.5129 36.2233 34.6037 36.7909C34.6037 36.7909 34.5954 36.7909 34.5789 36.7909ZM20.3183 36.6675C20.2111 36.503 20.2028 36.4865 20.1698 36.4207C20.2441 36.4043 20.2276 36.3384 20.2606 36.3302C20.3183 36.4454 20.6732 36.8238 20.4669 36.8732C20.4174 36.8074 20.3679 36.7416 20.3183 36.6675ZM33.8445 36.8979C33.7454 36.6017 33.7454 36.6017 33.7372 36.5359C33.7949 36.6264 33.861 36.7169 33.9187 36.8156C33.894 36.865 33.894 36.865 33.8445 36.8979ZM41.0985 36.9308C41.115 36.8979 41.1398 36.8814 41.1646 36.8567C41.1728 36.8896 41.1233 36.9143 41.0985 36.9308ZM34.9008 36.9801C34.8513 36.9143 34.81 36.8896 34.7522 36.8567C34.6285 36.2644 34.777 36.2973 35.3629 36.2233C35.5693 36.1081 35.5693 36.1081 35.6518 36.0752C35.6435 36.1904 35.6353 36.3055 35.627 36.4207C35.3877 36.6017 35.1401 36.7909 34.9008 36.9801ZM35.3464 37.2105C35.3382 37.1364 35.3382 37.1364 35.3217 37.0789C35.2557 37.0542 35.0411 37.0295 35.0411 37.0213C35.7426 36.4783 35.7426 36.4783 35.7673 36.4536C35.7673 36.3055 35.7673 36.1657 35.7673 36.0176C35.66 35.8366 35.66 35.8366 35.6518 35.7872C35.7591 35.8531 35.8664 35.9106 35.9819 35.9765C36.0314 36.1821 36.0727 36.3796 36.1222 36.5853C35.9241 36.7745 35.7591 37.0871 35.4702 37.0624C35.4042 37.1529 35.4042 37.1529 35.3464 37.2105ZM33.8857 37.2105C33.894 37.1035 33.894 37.046 33.96 36.9555C33.9682 36.9801 33.9682 36.9801 33.8857 37.2105ZM28.8351 37.5313C28.439 37.194 28.2822 36.4948 28.0923 35.9929C28.0428 35.7132 27.9933 35.4335 27.9438 35.1538C28.0016 34.8576 28.2079 34.5944 27.853 34.5039C27.7705 34.5697 27.754 34.6519 27.7127 34.7424C27.6302 34.7342 27.5394 34.7342 27.4569 34.726C27.4074 34.6437 27.3579 34.5614 27.3166 34.4874C27.4074 34.4874 27.5477 34.3887 27.5477 34.29C27.4817 34.2241 27.3249 34.2406 27.2341 34.2324C27.2011 34.1666 27.1515 34.1254 27.1515 34.0514C27.4156 33.8128 27.5972 34.1748 27.82 34.0349C27.82 33.7717 27.6302 33.5495 27.5972 33.2945C27.7622 33.13 27.8448 33.3192 28.0511 33.3192C28.2739 33.13 28.5132 32.949 28.7443 32.768C28.7443 32.7022 28.7443 32.6446 28.7278 32.5788C28.8516 32.5788 28.8516 32.5788 28.9011 32.5541C28.9011 32.3978 28.7361 32.2579 28.637 32.151C28.6783 32.0111 28.7113 31.8795 28.7526 31.7396C29.1817 31.6656 29.1817 31.6656 29.2312 31.6409C29.2312 31.6162 29.2395 31.5916 29.2477 31.5669C29.4128 31.6656 29.5943 31.7643 29.7346 31.8877C29.7346 31.97 29.5696 32.1016 29.5201 32.1674C29.5861 32.3978 29.5861 32.3978 29.5943 32.4718C29.5283 32.4718 29.4705 32.4718 29.4128 32.4718C29.3385 32.5705 29.421 32.8338 29.4788 32.9243C29.7181 33.0724 29.7181 33.0724 29.7346 33.0888C29.6686 33.1711 29.5861 33.2369 29.5861 33.3356C30.0482 33.6894 30.4609 33.8293 31.0055 34.0349C31.1788 34.0185 31.2284 33.8951 31.3191 33.7552C31.3852 33.747 31.3852 33.747 31.4512 33.7552C31.4429 33.8128 31.4429 33.8704 31.4429 33.928C31.1293 33.9938 31.4182 35.0386 31.4429 35.1456C31.4017 35.1373 31.3769 35.0715 31.3604 35.0304C31.3356 35.0304 31.3191 35.0304 31.2944 35.0304C30.8817 35.4746 30.4691 35.7461 29.9574 36.0752C29.487 36.2068 29.487 36.2068 29.4705 36.2315C29.3137 37.194 29.3137 37.194 29.289 37.2599C29.1404 37.3421 28.9836 37.4408 28.8351 37.5313ZM21.482 37.5313C21.3334 37.4491 21.1684 37.3339 21.0033 37.3092C20.7392 36.9719 20.4669 36.6264 20.2441 36.2562C19.6829 34.7342 19.0722 33.2205 18.3955 31.7479C18.4615 31.7972 18.6018 31.9535 18.6265 31.97C18.8081 31.8795 18.6678 31.4599 18.9071 31.4435C19.0969 31.9206 19.3033 32.1839 19.6416 32.587C19.9552 33.2698 20.046 33.2287 19.8232 33.8786C19.8397 34.2406 19.8149 34.1995 20.1698 34.2653C20.1615 34.3146 20.1615 34.3722 20.1615 34.4216C20.079 34.3887 19.947 34.2817 19.8644 34.3311C19.947 35.1373 20.5494 35.9682 21.1188 36.503C21.2591 36.8403 21.3912 37.1694 21.4985 37.5149C21.4902 37.5231 21.482 37.5231 21.482 37.5313ZM34.2076 37.8275C34.059 37.8028 33.96 37.7535 33.8279 37.6794C33.8279 37.5972 33.8279 37.5972 33.8775 37.3503C33.9682 37.482 34.1746 37.6876 34.2076 37.8275ZM34.2653 37.9098C34.2653 37.8933 34.2571 37.8851 34.2571 37.8769C34.2818 37.8686 34.2818 37.8686 34.3149 37.8933C34.2984 37.9015 34.2818 37.9015 34.2653 37.9098ZM38.7961 38.0167C38.7548 38.0003 38.7218 37.9838 38.6805 37.9674C38.8373 37.8851 38.8373 37.8851 38.9033 37.8686C38.8951 37.9098 38.8868 37.9427 38.8868 37.9838C38.8538 37.992 38.8208 38.0003 38.7961 38.0167ZM29.5118 38.0167C29.487 37.992 29.4623 37.9756 29.4375 37.9509C29.4458 37.6383 29.4458 37.6383 29.4705 37.5313C29.5531 37.6218 29.6356 37.7123 29.7264 37.8028C29.7099 37.8604 29.7016 37.9262 29.6934 37.992C29.6273 38.0003 29.5696 38.0003 29.5118 38.0167ZM36.7824 38.2882C37.0135 37.9509 37.3023 37.6465 37.6572 37.4491C37.7397 37.3503 37.913 37.046 38.0286 37.013C38.1193 37.1035 38.1606 37.0953 38.3009 37.1035C38.0863 37.301 38.0863 37.3503 37.8057 37.4162C37.6737 37.6054 37.5416 37.7946 37.4014 37.992C37.195 38.0908 36.9887 38.1895 36.7824 38.2882ZM34.9421 38.6173C34.5377 38.4774 34.5047 38.4281 34.3149 38.0496C34.5129 37.8769 34.7027 37.992 34.9008 38.1484C34.909 38.3622 34.9173 38.4034 35.0576 38.5597C35.0493 38.6091 34.9833 38.6173 34.9421 38.6173ZM23.0995 39.2919C22.7776 39.0039 22.5301 38.8394 22.3815 38.4363C22.4145 38.4445 22.4145 38.4445 22.6043 38.5679C22.6621 38.5268 22.7281 38.5515 22.8024 38.5597C22.8271 38.535 22.8271 38.535 22.8437 38.4939C22.8767 38.4857 22.9097 38.4857 22.9427 38.4857C22.9757 38.5186 22.9757 38.5186 23.1077 38.7407C23.0087 38.9052 23.1242 39.1027 23.0995 39.2919ZM18.1644 32.0523C18.2964 32.3155 18.4367 32.5788 18.5853 32.8338C18.9319 33.7717 19.3033 34.6602 19.7819 35.5322C19.8809 35.8037 19.9882 36.067 20.112 36.322C20.0955 36.2644 20.0873 36.2068 20.0708 36.1492C19.5261 34.7342 18.9649 33.3274 18.346 31.9453C18.346 31.9947 18.4367 32.3155 18.4367 32.3649C18.2717 32.0523 18.1314 31.7396 18.0076 31.427C17.8178 30.5138 17.7188 29.5677 17.7188 28.597C17.7188 25.1417 18.9897 21.9661 21.0858 19.5228C22.9097 18.5438 25.3937 18.7248 27.3744 18.8317C27.3909 18.8482 27.4074 18.8728 27.4239 18.8975C27.4569 18.8728 27.4569 18.8728 27.4734 18.8482C27.7375 18.8646 28.0016 18.8893 28.2657 18.914C28.2904 18.9551 28.2904 18.9551 28.2987 19.0374C28.3564 19.0456 28.3564 19.0785 28.3482 19.1361C28.4307 19.1279 28.4307 19.1279 28.538 19.0867C28.5545 19.095 28.571 19.1114 28.5875 19.1196C28.5875 19.1443 28.5875 19.169 28.5875 19.1937C28.7526 19.1937 28.8351 19.0045 28.8846 19.243C29.0827 19.1196 29.2477 19.276 29.4458 19.3664C29.454 19.35 29.4623 19.3335 29.4788 19.3171C29.5036 19.3171 29.5283 19.3171 29.5531 19.3171C29.6108 19.4158 29.6273 19.4816 29.7429 19.531C29.7594 19.4981 29.7676 19.4652 29.7759 19.4405C29.6934 19.3911 29.5613 19.3171 29.6191 19.2101C29.7099 19.2101 29.7676 19.2348 29.8502 19.2677C29.8667 19.2019 29.8667 19.2019 29.8832 19.1855C29.9905 19.1937 30.0895 19.1772 30.205 19.1937C30.1968 19.243 30.1885 19.2924 30.1803 19.3335C30.5269 19.2019 30.7827 19.3006 31.1623 19.3664C31.1788 19.3335 31.1953 19.3089 31.2119 19.276C31.1871 19.2513 31.1871 19.2513 30.3371 19.0867C30.3371 19.0291 30.3866 19.0209 30.4361 19.0045C30.3866 18.9716 30.3453 18.9469 30.3041 18.9222C30.3041 18.7412 30.5929 18.8728 30.7084 18.6507C30.6837 18.6014 30.6754 18.5767 30.6754 18.5191C30.824 18.5191 31.2614 18.9633 31.4264 19.1032C31.4594 19.0785 31.4924 19.0621 31.5337 19.0456C31.3852 18.914 31.2284 18.7906 31.0798 18.6672C31.1458 18.6507 31.2036 18.6425 31.2696 18.626C31.2614 18.6096 31.2614 18.5931 31.2614 18.5767C31.3026 18.5355 31.3274 18.5438 31.3852 18.5438C31.3934 18.5109 31.3934 18.4779 31.3934 18.445C31.4677 18.4204 31.5255 18.4615 31.5915 18.4862C31.5915 18.4779 31.608 18.4779 31.608 18.4697C31.575 18.4615 31.5585 18.4368 31.5337 18.4039C31.4924 18.3957 31.4429 18.3957 31.3934 18.3957C31.3769 18.3628 31.3687 18.3134 31.4017 18.2887C31.3109 18.1406 31.2779 18.1653 31.2944 17.9843C31.3191 17.9679 31.3521 17.9432 31.3852 17.9267C31.3852 17.8938 31.3852 17.8938 31.3439 17.8198C31.2944 17.8774 31.2284 17.8692 31.1541 17.8692C31.1293 17.9103 31.1128 17.9514 31.0881 17.9843C31.1376 18.009 31.1788 18.0337 31.2284 18.0502C31.2284 18.0831 31.2284 18.1077 31.2366 18.1406C31.0716 18.2065 31.0468 18.2147 30.9808 18.3628C31.0881 18.3957 31.0716 18.4697 31.0716 18.5767C30.9313 18.6754 30.4444 18.3134 30.7415 18.0419C30.6424 18.0172 30.5186 18.0337 30.4279 17.9843C30.4279 17.9597 30.4279 17.9267 30.4279 17.9021C30.4609 17.8774 30.4939 17.8692 30.5351 17.8527C30.3701 17.8033 30.2298 17.9103 30.073 17.9185C28.67 17.0547 27.1598 16.1497 25.468 16.0922C27.3579 15.1461 29.487 14.6113 31.7318 14.6113C31.7978 14.6113 31.8556 14.6113 31.9216 14.6113C31.9216 14.7101 31.9216 14.8088 31.9216 14.9075C31.8391 14.9075 31.7648 14.9075 31.6905 14.9157C32.5653 15.0556 33.4401 15.1954 34.3149 15.3353C36.7494 16.3554 36.7494 16.3554 36.7824 16.3554C36.7576 16.3307 36.7329 16.3061 36.7164 16.2814C36.7907 16.2485 36.8732 16.2073 36.9475 16.2156C37.0135 16.0675 37.3436 16.1497 37.4591 16.1415C37.4179 16.1168 37.3848 16.1004 37.3436 16.0839C37.5004 16.0346 37.6737 16.0099 37.8305 16.0017C39.5305 16.8244 41.0408 17.9761 42.2704 19.3829C42.1549 19.35 41.8908 19.2595 41.5689 19.1772C40.4631 18.9304 39.3737 18.8564 38.2514 18.7988C37.2941 18.4862 37.2941 18.4862 37.2611 18.4615C37.2528 18.4368 37.2528 18.4204 37.2528 18.3957C37.2941 18.3545 37.3353 18.3545 37.3518 18.297C37.2776 18.2229 37.2693 18.116 37.2446 18.0172C37.1538 17.9103 37.063 17.7951 36.9722 17.6882C36.964 17.7293 36.964 17.7787 36.964 17.8198C36.7164 17.9843 35.7591 18.0584 35.627 18.2723C35.7426 18.4697 35.8416 18.6425 35.9159 18.8564C34.843 18.9387 33.7702 19.0703 32.7138 19.2595C32.7056 19.2677 32.6973 19.276 32.6973 19.2842C32.7138 19.3006 32.7303 19.3335 32.7469 19.3582C33.7949 19.2019 34.8595 19.0456 35.9241 18.988C36.1057 19.169 36.4193 19.4076 36.6586 19.5063C36.7081 19.4652 36.7576 19.4158 36.8072 19.3747C36.8154 19.0867 36.8154 19.0867 36.8402 19.0621C36.8649 19.0621 36.8979 19.0621 36.9227 19.0621C37.0382 19.2348 37.1538 19.4076 37.2693 19.5803C37.3023 19.5474 37.3188 19.5474 37.3683 19.5474C37.3601 19.4981 37.3601 19.4981 37.2363 19.2513C37.2528 18.8564 37.9213 19.5063 37.9955 19.5639C38.0368 19.5639 38.0781 19.5721 38.1193 19.5803C38.1193 19.5228 38.1276 19.5063 38.1606 19.4652C38.0781 19.3911 38.0781 19.3911 38.0451 19.3418C38.0533 19.3253 38.0616 19.3089 38.0781 19.2924C38.1936 19.2924 38.3009 19.3335 38.4164 19.3582C38.3422 19.243 38.1936 19.0785 38.1936 18.9387C38.3587 18.9387 38.4825 19.0785 38.6145 19.0785C38.5485 19.0291 38.4825 18.988 38.4329 18.9387C39.8029 18.9962 41.1646 19.1032 42.452 19.5968C44.5069 22.0319 45.753 25.1746 45.753 28.597C45.753 29.214 45.7118 29.8146 45.6375 30.4069C45.2992 31.5833 44.771 32.5623 44.053 33.5824C44.0365 33.5331 43.9787 32.9983 43.8797 32.3155C43.2112 29.1317 41.7092 26.3593 39.448 24.0146C39.316 23.595 39.2747 23.4305 38.9446 23.1426C38.9446 23.1097 38.9529 23.0685 38.9611 23.0356C38.8951 22.9945 38.8373 22.9616 38.7795 22.9287C38.2679 23.0192 38.3422 22.3363 38.2844 22.0402C38.3091 22.0073 38.3091 22.0073 38.4412 21.9168C38.3091 21.7029 37.9625 21.2915 37.9625 21.0365C37.9873 21.0118 38.0038 21.0036 37.9873 20.9707C37.847 20.9625 37.7067 20.9542 37.5747 20.9542C37.5499 20.9296 37.5499 20.9296 37.4756 20.7157C37.3848 20.6581 37.3023 20.5922 37.2115 20.5347C37.2115 20.51 37.2033 20.4771 37.2033 20.4524C37.2446 20.4113 37.3353 20.4442 37.3848 20.4524C37.4344 20.3454 37.4839 20.2549 37.5582 20.1727C37.4839 20.1151 37.3106 19.9423 37.2198 19.9423C37.195 19.9752 37.1703 20.0081 37.1455 20.0493C37.162 20.0904 37.2198 20.0904 37.2611 20.0986C37.2776 20.1315 37.2776 20.1809 37.2528 20.2056C36.8402 20.2632 36.5513 20.5347 36.4275 20.9213C36.5101 20.9707 36.5926 21.0283 36.6834 21.0859C36.6751 21.1105 36.6751 21.1352 36.6751 21.1599C36.6256 21.1846 36.6256 21.1846 36.4275 21.2257C36.4193 21.2751 36.4193 21.3244 36.411 21.3738C35.2557 20.6087 34.059 20.0493 32.7469 19.605C32.7303 19.6379 32.7138 19.6791 32.7056 19.712C34.0095 20.148 35.2309 20.7074 36.3698 21.4972C36.3863 21.7687 36.1717 21.6535 35.9571 21.6453C35.8911 21.7605 35.8251 21.8756 35.7591 21.9908C35.528 22.0484 35.528 22.0484 35.4042 22.0566C35.3712 22.0319 35.3464 22.0073 35.3217 21.9908C35.2392 22.0402 35.0163 22.1471 34.9751 22.2294C35.0493 22.3446 35.1154 22.3857 35.1236 22.5173C34.9916 22.6407 34.9173 22.7724 34.7275 22.7559C34.7522 22.8382 34.7853 22.9204 34.777 23.0027C34.5377 23.1261 34.2323 22.7559 34.092 22.6325C33.6216 21.7111 33.0439 20.8144 32.4745 19.9423C32.3837 19.9917 32.3837 19.9917 32.3755 20.0081C32.9284 20.872 33.4648 21.7522 33.9682 22.6407C33.9517 22.7148 33.9765 22.7559 33.9765 22.83C33.7372 23.0274 33.5226 22.7806 33.341 23.0685C33.3163 23.0685 33.2915 23.0685 33.2668 23.0685C33.2255 23.0274 33.2007 22.9863 33.1677 22.9451C33.1265 23.2002 32.9532 23.2166 32.7881 23.1097C32.9367 22.8464 33.2007 22.6161 32.8789 22.4268C32.7551 22.4268 32.6066 22.6161 32.5488 22.4351C32.4498 22.4351 32.4498 22.4351 32.4415 22.4268C32.425 22.4927 32.4002 22.5502 32.3342 22.5749C32.3342 22.7477 32.1692 22.6901 32.0206 22.6983C32.0124 21.8263 32.0124 20.9542 32.0041 20.074C31.9628 20.074 31.9298 20.074 31.8968 20.074C31.8886 20.9542 31.8886 21.8427 31.8803 22.723C31.7813 22.7806 31.6823 22.83 31.5915 22.8875C31.542 23.2413 31.5255 23.1673 31.1706 23.2578C31.1623 23.266 31.1541 23.2742 31.1541 23.2907C31.2531 23.4881 31.4264 23.776 31.2036 23.9982C30.956 23.9982 31.0798 23.7431 31.1293 23.6115C31.0385 23.5539 30.89 23.4141 30.7827 23.5128C30.8157 23.5786 30.8487 23.6362 30.8817 23.702C30.8652 23.7349 30.8652 23.7349 30.8157 23.7678C30.5929 23.6526 30.5764 23.6691 30.5764 23.4305C30.4691 23.5621 30.4196 23.8007 30.4361 23.9817C30.5269 24.0311 30.6177 24.0722 30.7084 24.1216C30.7002 24.2038 30.6919 24.2861 30.6837 24.3766C30.7002 24.3848 30.7249 24.3931 30.7497 24.4095C30.7497 24.5823 30.6012 24.5165 30.5186 24.426C30.5186 24.3437 30.5186 24.2614 30.5186 24.1792C30.4279 24.1792 30.1225 24.5905 30.0565 24.681C29.9327 24.681 29.7924 24.574 29.7924 24.4424C29.8914 24.3848 30.139 24.2861 30.1638 24.2614C30.2545 23.9241 30.3453 23.5868 30.4279 23.2578C30.3948 23.2413 30.3536 23.2248 30.3288 23.2084C30.139 23.34 29.9327 23.5457 29.9327 23.7925C29.974 23.8748 30.007 23.9406 30.007 24.0311C29.9409 24.0969 29.8997 24.1627 29.7924 24.1462C29.5448 23.8007 29.5448 23.8007 29.421 23.6609C29.322 23.7431 29.2395 23.8501 29.1157 23.8665C28.9671 23.6444 30.6424 21.2339 30.89 20.8637C31.0881 20.5676 31.2944 20.2796 31.5007 19.9835C31.4924 19.9506 31.4182 19.9259 31.3852 19.9341C30.5269 21.1599 29.7511 22.4104 28.9836 23.6938C28.9011 23.7185 28.8268 23.7185 28.7443 23.7185C28.6948 23.6773 28.7196 23.628 28.7443 23.5786C28.67 23.5704 28.1831 23.628 27.9521 23.6362C27.9355 23.6197 27.9355 23.6197 27.919 23.3894C27.853 23.4799 27.787 23.5621 27.721 23.6526C27.6054 23.6526 27.6219 23.5539 27.6219 23.4552C27.4817 23.4552 27.4817 23.4552 27.3991 23.4716C27.3579 23.5539 27.3083 23.6362 27.2671 23.7185C27.2423 23.7185 27.2176 23.7185 27.1928 23.7185C27.1515 23.628 27.1103 23.5375 27.0773 23.447C27.0278 23.5046 26.9782 23.5704 26.937 23.628C26.9122 23.628 26.8875 23.628 26.8627 23.628C26.8049 23.521 26.7884 23.3729 26.7884 23.2495C27.0443 23.0274 27.0443 23.0192 27.102 22.6983C26.8792 22.9204 26.6729 23.1426 26.4583 23.3729C26.3015 23.3729 26.12 23.2742 25.9797 23.2166C25.9962 23.4058 26.12 23.8007 25.9054 23.9488C25.6578 24.0146 25.4102 24.0969 25.1627 24.1709C25.1461 24.4342 25.1957 25.1006 24.7913 24.936C24.783 24.9689 24.7583 25.0018 24.75 25.0347C24.9151 25.2569 24.8078 25.3967 24.7748 25.6764C25.2039 26.532 25.1709 26.2852 24.5189 26.4909C24.3539 26.5896 24.3869 26.7542 24.2879 26.8858C24.2549 26.8858 24.2136 26.8858 24.1806 26.8858C24.2384 27.5604 24.5437 27.9635 24.8821 28.5394C24.9151 28.5394 24.9481 28.5312 24.9811 28.5312C24.9893 28.2926 24.9976 28.0622 24.9976 27.8237C25.0389 27.7167 25.2699 27.4946 25.3855 27.4946C25.4185 27.5439 25.4185 27.5439 25.4515 27.5522C25.5093 27.3712 25.4763 27.1408 25.4763 26.9434C25.5835 26.8776 25.8146 26.6061 25.9302 26.7295C26.0622 26.6637 26.2933 26.6966 26.4418 26.6966C26.5739 26.8611 26.7059 27.0339 26.8462 27.2066C27.168 27.2395 27.2341 27.182 27.3579 27.4781C27.4074 27.4781 27.4651 27.4864 27.5147 27.4946C27.5064 27.4041 27.4899 27.3218 27.4817 27.2395C27.5312 27.2149 27.5559 27.2066 27.6137 27.1984C27.6302 27.075 27.6797 27.0997 27.8118 27.0832C27.8118 27.0256 27.8035 26.9434 27.8365 26.894C29.0249 26.9187 29.0249 26.9187 29.0827 26.9352C29.1074 26.9681 29.1074 26.9681 29.19 27.2313C29.3137 27.2725 29.5118 27.2725 29.5201 27.4288C29.8749 27.3547 29.8749 27.3547 29.9327 27.3547C30.0482 27.4699 30.172 27.9964 30.2298 28.1692C30.2876 28.1445 30.3041 28.1363 30.3701 28.1363C30.4856 28.3008 30.6259 28.235 30.8075 28.3008C30.9725 28.4653 30.9973 28.5312 31.2201 28.5312C31.2696 28.5805 31.3109 28.6299 31.3604 28.6875C31.5585 28.597 31.7813 28.4324 31.9959 28.3995C32.293 28.4571 32.5488 28.4653 32.8541 28.4653C32.8541 28.235 32.8294 28.054 33.0109 27.8812C33.3658 27.9553 33.4483 27.98 33.6959 28.235C33.7289 28.2268 33.7289 28.2268 33.8692 28.1445C34.5624 28.1198 34.6367 28.3008 35.2309 27.8895C35.4702 27.8237 35.7261 27.8812 35.9159 27.7167C35.8911 27.4946 35.7921 27.2231 35.7921 27.0174C36.1635 26.7048 36.1635 26.7459 36.6504 26.7459C36.7989 26.8858 36.9392 27.0421 37.0877 27.1902C37.2528 27.1902 37.4179 27.1902 37.5829 27.1902C37.6159 27.2231 37.6407 27.256 37.6819 27.2889C37.781 27.1408 37.88 26.9845 37.979 26.8364C38.0038 26.8364 38.0286 26.8364 38.0616 26.8364C38.2019 27.1244 38.3174 27.511 38.3339 27.8319C38.0698 28.1116 38.0946 28.0458 38.2844 28.3831C38.3339 28.161 38.3669 28.2185 38.598 28.2185C38.8291 27.7085 38.6805 27.0668 38.6393 26.5074C38.5072 26.2606 38.3834 26.0137 38.2514 25.7752C38.1523 25.7505 38.0533 25.7258 37.9543 25.7011C37.913 25.6353 37.979 25.6024 37.979 25.5448C37.9378 25.5448 37.9048 25.5366 37.8635 25.5366C37.8222 25.6353 37.781 25.7669 37.715 25.8492C37.6654 25.8492 37.6242 25.8492 37.5829 25.8492C37.5416 25.8081 37.5004 25.7669 37.4674 25.7176C37.4014 25.7258 37.3106 25.7587 37.2528 25.7176C37.2446 25.2322 37.2446 24.755 37.2363 24.2779C37.3601 24.138 37.4921 23.9982 37.6159 23.8665C37.6077 23.8089 37.6077 23.7514 37.6077 23.6938C37.7067 23.6362 37.8387 23.5046 37.9543 23.521C37.9625 23.4799 37.979 23.4387 37.9955 23.3976C37.7232 23.3318 37.5747 22.7806 37.7232 22.5502C38.1111 22.904 38.4494 23.1343 38.6558 23.6033C38.9363 23.8089 39.2169 24.0228 39.4975 24.2285C41.9568 26.6801 43.5496 30.1519 43.8797 33.5907C43.8714 33.64 43.8714 33.6812 43.8714 33.7305C42.4685 35.3759 40.9087 36.6346 38.9694 37.6136C38.9694 37.5642 38.9694 37.5149 38.9694 37.4655C39.3985 37.2434 39.3985 37.2434 39.3902 37.2352C39.2499 37.301 39.1097 37.3668 38.9611 37.4408C38.9198 34.9563 38.2514 32.5294 37.5251 30.1765C37.3931 29.8228 37.3766 29.8886 37.6159 29.6007C37.7397 29.3045 37.6077 28.9919 37.946 28.9261C37.9543 28.7862 37.9955 28.4571 38.1358 28.3995C37.946 28.0293 37.913 28.0869 38.2019 27.7825C38.0038 27.0832 38.0038 27.0832 37.979 27.0421C37.8883 27.1737 37.8057 27.3054 37.715 27.4452C37.6902 27.4452 37.6654 27.4452 37.6489 27.4452C37.6077 27.3959 37.5582 27.3465 37.5169 27.3054C37.3518 27.3054 37.1785 27.3054 37.0135 27.3054C36.8649 27.1573 36.7246 27.0092 36.5843 26.8611C36.4358 26.8611 36.2955 26.8611 36.1469 26.8611C35.9571 27.0339 35.9571 27.0339 35.9076 27.0668C35.9076 27.3712 36.2212 27.8072 35.7756 27.9388C35.8086 28.1856 35.8086 28.1856 35.8251 28.2103C36.2047 28.0869 36.1304 28.1034 36.411 28.3913C36.411 28.4489 35.7591 29.107 35.6931 29.1811C35.6023 29.1893 35.5032 29.214 35.4125 29.2304C35.4042 29.2798 35.4867 29.4032 35.495 29.4855C35.2474 29.757 34.711 30.2917 34.3314 30.2917C34.1168 30.2259 33.9105 30.1683 33.6959 30.1025C33.4566 30.1354 33.2255 30.1765 32.9862 30.2094C32.8376 30.086 32.6891 29.9626 32.5405 29.8392C31.8721 29.6418 31.8721 29.7981 31.7235 29.1729C31.6245 29.0577 31.5255 28.9507 31.4264 28.8356C31.3439 28.8356 31.2531 28.8931 31.1871 28.9343C31.1293 29.2716 31.022 29.1729 30.6754 29.1975C30.5764 29.6089 30.6177 29.5431 30.1968 29.6418C30.1555 30.2094 30.1555 30.2094 30.139 30.2423C29.8502 30.2835 29.6191 30.5221 29.3468 30.6126C28.9754 30.6619 28.8598 30.5632 28.8021 30.9005C28.8516 30.9499 28.9011 30.9992 28.9589 31.0486C28.9589 31.1226 28.9589 31.1884 28.9589 31.2625C29.2065 31.4188 29.454 31.5751 29.7099 31.7314C29.8832 31.9289 29.7511 31.9618 29.5778 32.1427C29.5943 32.2744 29.6686 32.406 29.6686 32.5376C29.6356 32.5541 29.6356 32.5541 29.4458 32.5459C29.4458 32.6199 29.4458 32.6199 29.487 32.8009C29.5943 32.8667 29.7016 32.9325 29.8089 32.9983C30.4609 33.0477 30.89 33.9115 31.608 33.5249C31.8143 33.4837 32.1279 33.6483 32.1279 33.8786C32.0949 33.8951 31.608 33.9033 31.5502 33.9198C31.575 33.928 31.5997 33.928 31.6162 33.9362C31.6492 34.0102 31.6823 34.0843 31.7153 34.1583C31.8556 34.1748 32.0866 34.183 32.2022 34.2653C32.2022 34.2735 32.2022 34.29 32.2022 34.3064C31.9959 34.4874 31.9959 34.4874 31.9876 34.5039C32.0371 34.5532 32.1196 34.545 32.1857 34.5532C32.2022 34.5861 32.2022 34.5861 32.2352 34.907C32.2682 34.907 32.3095 34.907 32.3507 34.907C32.3507 34.5861 32.2599 34.5861 32.5158 34.4463C32.6891 34.0761 32.8046 33.8704 33.11 33.5907C33.1017 33.5413 32.9037 33.385 32.8624 33.2945C32.9202 33.13 33.0439 33.3686 33.0852 33.4179C33.2503 33.492 33.4071 33.5578 33.5639 33.6318C33.6464 33.8128 33.4978 34.1419 33.4483 34.3229C33.6794 34.3393 33.6711 34.4627 33.7867 34.6848C33.894 34.6931 34.0178 34.6931 34.125 34.7095C34.125 34.6848 34.1333 34.6519 34.1333 34.6273C34.3974 34.5368 34.6615 34.4216 34.9173 34.2982C35.1236 34.3311 35.3712 34.5532 35.5528 34.6684C35.7013 34.6273 35.8581 34.5532 36.0149 34.5532C36.0314 34.5779 36.0479 34.6026 36.0644 34.6273C36.1387 34.4627 36.4275 34.3722 36.5843 34.29C36.6421 34.1419 36.6421 34.1419 36.6999 34.0514C36.7659 34.0514 36.7824 34.0596 36.8402 34.0925C36.9722 34.002 37.1125 33.9115 37.2611 33.8293C37.4096 33.5824 37.5664 33.3439 37.715 33.1053C37.6572 32.7104 37.913 32.4883 37.9295 32.0852C37.9378 32.0852 37.9378 32.0852 37.946 32.0852C38.0286 32.4225 38.1193 32.7598 38.2019 33.0971C38.1276 33.1711 38.0863 33.3439 38.0533 33.4426C38.0781 33.4837 38.1111 33.5166 38.1441 33.566C38.1606 33.4261 38.1771 33.2863 38.1936 33.1382C38.3504 33.3274 38.4742 34.29 38.4742 34.4216C38.4412 34.4298 38.4082 34.4463 38.3752 34.4627C38.3752 34.5368 38.4742 34.9399 38.3339 34.9728C38.3504 35.0057 38.3587 35.0386 38.3752 35.0715C38.5402 35.0797 38.5402 35.0551 38.5732 35.2031C38.5897 35.2031 38.6062 35.2031 38.6227 35.2031C38.73 36.0341 38.8043 36.8485 38.8126 37.6877C38.3669 37.9015 38.3669 37.9015 37.88 38.1154C37.9543 37.9427 38.0368 37.7946 38.1936 37.6959C38.0698 37.5972 37.9213 37.4162 37.7645 37.5149C37.5086 37.8851 36.9309 38.6255 36.411 38.3458C36.3945 38.3458 36.378 38.3458 36.3615 38.3458C36.3203 38.4034 36.279 38.4692 36.2377 38.535C36.2707 38.5761 36.2955 38.6173 36.3203 38.6584C35.8416 38.7983 35.3464 38.9052 34.8678 39.0286C34.8678 38.9875 34.8595 38.9464 34.8595 38.9135C34.7935 38.9299 34.7935 38.9299 34.7192 38.9217C34.6945 38.8888 34.6945 38.8394 34.7192 38.7983C34.6532 38.7325 34.3231 38.716 34.2241 38.6996C33.8362 38.4857 33.5969 38.3129 33.1512 38.28C33.5143 38.5597 33.8775 38.8394 34.2406 39.1273C33.4978 39.2261 32.7634 39.3001 32.0206 39.333C32.0206 37.844 32.0206 36.3549 32.0206 34.8658C32.1114 34.8905 32.2022 35.1785 32.2434 35.269C32.6396 35.6803 32.7551 35.6968 32.7386 36.2397C32.9779 36.2726 33.1347 36.1575 33.176 35.9353C33.308 35.8037 33.4978 36.1821 33.5556 36.1986C33.6051 35.8531 33.3741 35.7461 33.4401 35.3759C33.6051 35.2525 33.9517 35.0551 33.9847 34.8329C33.6546 34.8165 33.7042 34.7836 33.5556 34.4709C33.4813 34.4627 33.4153 34.4627 33.3493 34.4545C33.275 34.3311 33.4813 33.9115 33.4731 33.7141C33.3493 33.6647 33.3493 33.6647 33.2503 33.64C33.1347 33.7388 33.0109 33.8457 32.8954 33.9527C32.7799 34.1995 32.7056 34.4792 32.4663 34.619C32.458 34.7424 32.458 34.8658 32.458 34.9892C32.2104 35.2443 32.1031 34.8247 32.0949 34.6766C31.9794 34.6766 31.8473 34.5861 31.8473 34.4627C31.8968 34.4134 31.9463 34.3722 31.9876 34.3229C31.6823 34.2735 31.641 34.3146 31.5337 34.0432C31.4842 34.0349 31.4347 34.0267 31.3852 34.0267C31.3852 34.1172 31.3687 34.2077 31.3274 34.29C31.3769 34.5614 31.4347 34.8247 31.4842 35.0962C31.5502 35.088 31.6162 35.0797 31.6905 35.0715C31.7318 34.9892 31.7813 34.907 31.8226 34.8329C31.8473 34.8329 31.8721 34.8247 31.8968 34.8247C31.8968 36.322 31.9051 37.8275 31.9133 39.333C29.2477 39.3083 26.7307 38.8065 24.3126 37.6465C24.3456 36.3549 24.618 35.0797 24.9068 33.821C24.9976 33.7634 25.0966 33.7059 25.1957 33.6483C24.9893 33.3192 25.0636 33.2205 25.1544 32.8338C25.3029 32.8338 25.6661 33.1217 25.8064 33.204C26.0457 32.9078 25.9136 33.0724 26.2025 33.0724C26.1282 32.8996 25.9879 32.4142 25.8311 32.3237C25.8311 32.2003 26.0044 32.0769 26.0787 31.9947C25.7899 31.6903 25.8971 31.6656 26.0374 31.2542C26.1942 31.1226 26.1942 31.1226 26.3758 30.9992C26.2933 30.267 25.5423 29.8063 25.3029 29.1317C24.9893 28.9343 24.5354 29.0988 24.2466 28.8356C24.0485 29.107 24.0733 29.2058 24.0733 29.5431C23.999 29.6418 23.933 29.7323 23.867 29.831C23.8835 30.193 23.9082 30.5632 23.933 30.9334C24.1311 31.2213 24.1311 31.4188 24.1723 31.789C24.2549 31.9289 24.3374 32.0687 24.4199 32.2003C24.8243 32.332 25.0471 32.2744 25.0471 32.7515C25.0059 32.8996 24.9646 33.0477 24.9233 33.1958C24.9151 33.1958 24.9068 33.1958 24.8986 33.1958C24.8325 33.0971 24.7748 33.0066 24.717 32.9078C24.6675 32.9572 24.6262 33.0148 24.585 33.0642C24.6345 33.4344 24.6345 33.3521 24.3456 33.6729C24.2714 33.6812 24.2714 33.6812 23.8587 33.6236C23.8752 33.8046 23.8917 33.9856 23.9082 34.1666C24.1228 34.2406 24.3291 34.2735 24.4942 34.0843C24.5602 34.0843 24.6262 34.0925 24.7005 34.0925C24.4612 35.2607 24.2549 36.3796 24.1888 37.5642C23.2068 37.0789 22.3072 36.503 21.4324 35.8284C21.4985 35.8202 21.5562 35.8119 21.6223 35.8037C21.5562 35.5075 21.4902 35.2114 21.4159 34.9152C21.1766 34.5532 20.83 34.2324 20.5329 33.9198C20.5742 34.1912 20.6484 34.1912 20.4421 34.3393C20.3431 34.7918 20.9868 35.4829 21.2179 35.8613C21.2509 35.8695 21.2756 35.8695 21.3087 35.8777C22.1999 36.5853 23.1738 37.1694 24.1806 37.7041C24.1806 38.8312 24.3044 39.95 25.0059 40.8303C21.6965 39.0369 19.1465 35.8531 18.1644 32.0523ZM37.6819 41.2581C37.8057 41.1429 37.9543 41.036 38.0451 40.9373C39.2912 40.1968 40.3558 39.5058 41.4204 38.535C41.7175 38.1977 42.5015 37.5642 42.6335 37.1611C42.584 37.1118 42.6666 37.0048 42.6335 36.9637C42.5098 37.046 42.5263 36.9308 42.5097 36.8485C42.2539 37.3092 41.9403 38.1895 41.2636 38.1895C41.1893 38.0825 41.3709 37.9591 41.3709 37.8604C41.2306 37.9427 41.0985 38.0332 40.9665 38.1154C40.9417 38.28 40.6364 38.4692 40.5044 38.5679C40.3723 38.823 40.1247 39.2507 39.8441 39.0862C39.349 39.333 38.9198 39.8595 38.5237 40.2297C38.5237 40.1228 38.6888 39.7937 38.73 39.6785C38.8373 39.3083 38.8951 38.3952 39.1262 38.1813C39.0024 38.0661 39.0106 37.9509 39.0436 37.7864C39.7369 37.4244 40.4218 37.0213 41.082 36.5935C41.0408 36.6511 41.0408 36.6511 41.049 36.6593C41.2553 36.5606 41.2553 36.5606 41.3214 36.5194C41.3131 36.503 41.3049 36.4948 41.3049 36.4783C41.2223 36.5194 41.2223 36.5194 41.1893 36.5194C42.2209 35.7543 43.1039 34.9317 43.9457 33.9527C43.954 33.9527 43.9622 33.9444 43.9705 33.9444C43.9622 34.5697 43.921 35.2114 43.7559 35.8119C42.3117 38.1813 40.199 40.0817 37.6819 41.2581ZM32.0866 42.5662C32.2022 42.1631 32.0949 39.8019 32.0949 39.4811C32.8954 39.44 33.6794 39.3742 34.4717 39.2672C34.777 39.5058 35.0741 39.6785 35.4702 39.5963C35.4867 39.4893 35.5032 39.3906 35.5115 39.2837C35.3877 39.2343 35.2557 39.1932 35.1319 39.152C35.1319 39.1438 35.1319 39.1356 35.1319 39.1273C35.5693 39.0369 36.0067 38.9217 36.4358 38.8065C36.5101 38.8065 36.5266 38.8641 36.5678 38.9217C37.4014 38.7325 37.4014 38.7325 37.4591 38.7325C37.6324 38.823 37.8222 38.5103 37.8222 38.354C37.8718 38.2553 38.4742 38.0579 38.6062 38.0003C38.4659 38.3787 38.598 38.2388 38.6227 38.5515C38.631 38.5432 38.6393 38.5432 38.6475 38.535C38.6475 38.3047 38.6558 38.2635 38.763 38.0743C38.7961 38.0743 38.8291 38.0743 38.8621 38.0743C38.9198 38.1895 38.8291 38.6749 38.8126 38.79C38.7053 39.3001 38.5815 39.9418 38.2679 40.3614C37.8387 40.5835 37.4096 40.8056 36.9805 41.0195C36.8319 41.1841 36.8897 41.1347 36.8732 41.2992C36.8484 41.3157 36.8154 41.3321 36.7907 41.3404C37.1455 41.5131 37.5747 40.9619 37.7727 41.0607C37.6324 41.1923 37.4921 41.3075 37.3436 41.4144C35.7261 42.1137 33.9517 42.525 32.0866 42.5662ZM25.3855 41.0442C24.6097 40.1968 24.2714 38.9546 24.3869 37.8111C26.5243 38.7407 28.5215 39.2672 30.857 39.4646C31.2284 39.4646 31.5997 39.4729 31.9794 39.4811C31.9794 39.8102 31.8721 42.1713 32.0206 42.5662C31.9298 42.5662 31.8391 42.5662 31.7565 42.5662C29.4623 42.5744 27.2918 42.0232 25.3855 41.0442Z" fill="#F78F1E"/>
<path fill-rule="evenodd" clip-rule="evenodd" d="M69.6973 9.70898V24.8584H76.6176L80.5382 16.375H80.6273V24.8584H86.5527V9.70898H79.6249L75.7117 18.3668H75.6226V9.70898H69.6973Z" fill="#004781"/>
<path fill-rule="evenodd" clip-rule="evenodd" d="M98.0311 14.9502H94.066V9.70898H88.1406V24.8584H94.066V19.2755H98.0311V24.8584H103.956V9.70898H98.0311V14.9502Z" fill="#004781"/>
<path fill-rule="evenodd" clip-rule="evenodd" d="M105.25 9.70898V14.1869H110.47V24.8584H116.395V14.1869H121.615V9.70898H105.25Z" fill="#004781"/>
<path fill-rule="evenodd" clip-rule="evenodd" d="M122.928 9.70898V24.8584H136.598V21.2891H128.853V18.9266H136.108V15.4664H128.853V13.2783H136.442V9.70898H122.928Z" fill="#004781"/>
<path fill-rule="evenodd" clip-rule="evenodd" d="M143.557 13.2128H144.841C145.94 13.2346 146.683 13.4382 147.061 13.8235C147.44 14.2087 147.618 14.6304 147.588 15.0956C147.566 15.699 147.381 16.1351 147.039 16.4041C146.697 16.6731 146.311 16.8403 145.888 16.8984C145.465 16.9639 145.123 16.9857 144.863 16.9784H143.557V13.2128ZM137.787 9.70898V24.8584H143.712V20.4822H146.965C148.561 20.4604 149.846 20.1769 150.818 19.639C151.784 19.0938 152.489 18.4177 152.92 17.6036C153.351 16.7894 153.566 15.9679 153.558 15.1392C153.566 14.2015 153.328 13.3219 152.86 12.5004C152.393 11.679 151.658 11.0102 150.67 10.5013C149.682 9.98522 148.413 9.72352 146.861 9.70898H137.787Z" fill="#004781"/>
<path fill-rule="evenodd" clip-rule="evenodd" d="M164.756 13.2123H166.04C167.139 13.2341 167.882 13.4376 168.261 13.8229C168.639 14.2082 168.817 14.6298 168.788 15.1023C168.765 15.7057 168.587 16.1419 168.238 16.4108C167.897 16.6798 167.511 16.847 167.087 16.9124C166.664 16.9778 166.323 16.9997 166.063 16.9924H164.756V13.2123ZM158.986 9.70844V24.8579H164.912V20.4817H168.164C169.76 20.4599 171.045 20.1764 172.018 19.6312C172.983 19.086 173.688 18.4099 174.119 17.5957C174.55 16.7816 174.765 15.9601 174.758 15.1314C174.758 14.1937 174.527 13.3141 174.052 12.4926C173.584 11.6712 172.857 11.0024 171.862 10.4935C170.874 9.97741 169.604 9.71571 168.053 9.70117H158.986V9.70844Z" fill="#004781"/>
<path fill-rule="evenodd" clip-rule="evenodd" d="M182.003 13.3001L183.614 18.047H180.318L181.907 13.3001H182.003ZM178.083 9.70898L172.662 24.8657H178.587L179.627 21.5945H184.275L185.337 24.8657H191.574L186.065 9.70898H178.083Z" fill="#004781"/>
<path fill-rule="evenodd" clip-rule="evenodd" d="M199.372 13.082C200.107 13.1038 200.642 13.3509 200.984 13.8234C201.325 14.2887 201.54 14.8484 201.637 15.4954C201.734 16.1424 201.771 16.7385 201.763 17.291C201.778 17.8434 201.734 18.4395 201.637 19.0865C201.54 19.7335 201.325 20.2859 200.984 20.7585C200.642 21.231 200.1 21.4781 199.372 21.4999C198.637 21.4781 198.103 21.231 197.761 20.7585C197.419 20.2932 197.204 19.7335 197.108 19.0865C197.018 18.4395 196.974 17.8434 196.981 17.291C196.967 16.7385 197.011 16.1424 197.108 15.4954C197.204 14.8484 197.419 14.296 197.761 13.8234C198.103 13.3509 198.637 13.1038 199.372 13.082ZM199.372 9.44727C196.625 9.46907 194.501 10.1742 193.009 11.5554C191.516 12.9366 190.766 14.8484 190.744 17.2837C190.759 19.7262 191.516 21.6308 193.009 23.012C194.501 24.3932 196.618 25.0983 199.372 25.1201C202.127 25.0983 204.243 24.3932 205.736 23.012C207.228 21.6308 207.978 19.7189 208 17.2837C207.978 14.8412 207.228 12.9366 205.736 11.5554C204.243 10.1742 202.12 9.46907 199.372 9.44727Z" fill="#004781"/>
<rect x="69.6973" y="30.9453" width="137.773" height="1.62871" fill="#F78F1E"/>
</svg>
